<?xml version="1.0" encoding="UTF-8"?>
<svg id="Layer_1" data-name="Layer 1" xmlns="http://www.w3.org/2000/svg" viewBox="0 0 1357.02 339.46">
  <defs>
    <style>
      .cls-1 {
        fill: #fff;
      }
    </style>
  </defs>
  <g>
    <path d="M238.3,203.72c13.38,3.54.35,10.15-4.78,13.79-.87,3.55-1.61,7.09-2.78,10.57-1.36,4.06-3.6,7.83-4.7,11.89h-2.27s-.02,4-.02,4l1.17.21c-2.13,7.98-3.39,16.32-2.28,24.58,9.09,11.19,9.93,27.34,2.74,39.74,3.96,6.38,4.4,16-.7,21.82-21.77,5.5-44.31,7.02-66.69,8.06-34.45,1.6-69.69,1.67-104.12-1.53-11.15-1.04-27.94-2.58-38.41-5.83-3.01-.93-3.44-2.89-4.21-5.7-1.72-6.28-1.1-11.65,2.31-17.2-4.45-8.46-5.7-17.73-3.24-27.03,1.2-4.55,3.37-7.37,4.04-12.36,1.86-13.83-2.94-28.35-7.09-41.25-.7-2.17-1.14-5.91-1.89-7.62-.3-.68-1.33-.58-2.02-1.05-1.99-1.36-2.91-7.49-3.08-9.89-.69-10.06.68-20.59,4.88-29.77-9.49-6.9-4.55-18.22,4.28-22.87-2.57-3.04-2.79-7.24-3.06-11.04-.1-1.39.39-3.19.28-4.17-.13-1.28-2.82-7-3.42-9.1C.38,122.01-.03,112.48,1.99,102.3c.69-3.49,2.82-7.84,3.22-10.89.58-4.42.09-10.48.42-15.22,1.03-14.93,2.7-30.39,8.32-44.32-3.98-5.47-4.09-13.45-1.16-19.45,1.86-3.82,7.28-4.82,11.12-5.66C43.47,2.5,66.26,1.71,86.3.88c37.88-1.58,78.67-1.44,116.25,3.85,5.61.79,15.5,1.98,20.55,3.86,5.48,2.04,6.36,13.05,5.13,17.9-.34,1.37-2.48,5-2.48,5.38.02.92,2.32,6.28,2.78,7.89,4.15,14.75,5.08,30.67,5.93,45.94.11,2.04-.29,4.54,0,6.48s1.97,5.39,2.53,7.76c2.53,10.63,2.25,22.33-.93,32.79-.72,2.36-2.71,5.95-3.06,8-.85,5.04,1.01,10.83-2.76,15.52,8.18,4.9,11.67,16.08,2.68,22.14,4.09,7.69,5.21,16.69,5.36,25.33ZM219.96,24.13c1.61-.9.54-6.93-.39-7.82-.55-.52-7-1.73-8.32-1.98-25.18-4.72-51.35-5.31-76.93-5.83-29.01-.58-58.42-.15-87.32,3.04-7.32.81-18.47,1.9-25.29,4.09-2.44.78-2.21,2.15-2.75,4.49.02.4.88.18,1.25.11,35.77-7.38,73.07-8.06,109.53-7.52,29.7.44,59.61,1.35,88.8,7.31,1.16.48,1.59,2.99,1.42,4.12ZM131.85,35.18h-.55c-2.43-2.56-7.91-6.31-11.46-6.5-3.84-.21-9.51,3.95-12.24,6.47-.84.15-1.65-1.73-2.24-2.26-7.15-6.45-15.85-4.82-21.74,2.28-1.63-1.91-5.45-4.57-8.01-4.58-2.07,0-5.46,2.31-6.87,3.82-4.54-6.58-11.6-7.76-16.83-1.16-.59.1-4.07-3.53-6.25-2.86-.99.3-2.97,2.33-3.91,2.09-4.01-4.54-9.33-5.02-13.48-.38l-4.09-2.22c-.46.2-.69.6-.91,1.01-.93,1.71-2.34,4.99-3.05,6.87-1.27,3.33-2.34,7.24-2.75,10.78l2.38-7.34c.37-1.3,3.24-6.99,4.62-6.74,4.45,3.82,6.06,10.79,7.3,16.37,1.32,5.92,2.3,12.24,2.48,18.31.99,1.29.72-2.52.77-2.85,1.09-8.17,3.07-19.69,7.04-26.9,3.08-5.58,4.86-6.81,8.4-.76,5.89,10.04,5.17,21.66,7.8,32.26.16.64-.38,1.11.77.93.32-4.18,1.26-8.66,2.32-12.75,1.67-6.45,6.47-21.25,12.92-24.07,3.24-1.41,6.2,2.26,7.96,4.66,6.17,8.44,9.25,22.88,10.69,33.16l1.58,14.25c1.16-14.48,4.1-31.43,12.05-43.82,2.17-3.38,8.82-11.26,13.17-10.9,4.08.34,9.84,6.36,12.09,9.6,8.65,12.47,10.76,28.31,12.31,42.99.04.37.17,1.44.72,1.37.16-8.25,1.35-16.8,3.17-24.86,1.67-7.4,5.59-20.52,11.74-25.26,2.87-2.21,3.66-2.26,6.46-.04,8.94,7.1,11.14,24.31,13.71,34.74.16.64-.38,1.11.77.92.62-7.76,1.81-15.85,3.92-23.34,1.09-3.86,2.69-9.15,5.42-12.13,1.37-1.5,1.88-2.61,3.76-1.08,3.87,3.16,6.58,13.03,7.69,17.86l2.85,16.02c1.44-9.73,2.15-22.29,6.94-31.01,2.18-3.97,3.29-5.2,5.95-.76,4,6.66,5.96,20.35,6.89,28.19,1.67,14.05.23,28.32,5.28,41.63l1.24,11.91c.47-7.15-.67-13.74-2.47-20.6-.41-1.56-1.48-3.19-1.69-4.8-.81-6.14-.31-13.78-.8-20.18-.89-11.47-2.62-27.34-7.18-37.83-2.04-4.69-2.94-7.95-7.88-3.19-4-4.91-9.72-4.8-13.78-.03-.48.08-3.39-2.22-4.52-2.22s-4.05,2.11-4.96,3.02c-4.5-6.58-13.33-5.55-16.6,1.53-1.9-1.53-5.24-4.28-7.8-4.22s-6.28,2.91-8.03,4.59c-5.63-8.15-17.72-8.53-23.08,0ZM139.11,98.49c.75.2.74-.31,1.07-.64.8-.79,3.88-4.44,3.92-5.26-1.73-14.2-7.37-41.12-21.82-47.63-1.27-.57-2.3-1.08-3.69-.75-6.58,1.59-12.49,10.73-15.22,16.46-4.9,10.3-7.21,21.64-8.68,32.89,1.7,1.36,2.83,3.23,4.26,4.83.23.25-.02.73.87.49-.04-4.91,3.66-8.31,3.43-13.15-.1-2.12-2.11-10.41-.38-11.45,3.63-2.17,3.77,7.47,4.77,7.44l2.04-2.18c0-5.03-1.77-10.65-1.88-15.55-.06-2.88,1.68-4.08,3.63-1.69.69,1.65,3.12,13.07,3.85,13.32,1.31.44,1.61-1.61,1.71-2.48.65-5.57.3-11.54,1.17-17.13.57-2.38,3.62-2.34,4.15-.02l1.35,19.63,2.1.76c.71-2.4,2.67-13.59,3.91-14.77,1.34-1.27,3.17-.04,3.32,1.63l-2.08,17.7,2.09,2.31c.82-2.47,1.68-12.7,5.65-7.73l-1.78,15.19,2.24,7.8ZM56.73,71.41c-1.91-8.56-2.88-19.77-10.31-25.4-7.59,5.92-8.81,17.3-10.66,26.16l3.38-.81c.38-2.37.05-11.68,1.16-13.14.53-.7,1.49-.72,2.17-.19,1.29,1.02,1.14,8.85,1.28,10.92.05.67-.07,1.25.6,1.69l.9-3.28c-.06-2.21-.09-6.92,3.03-4.47l.83,7.75h1.13s.45-4.33.45-4.33l1.67-1c1.82.07,1.56,4.34,1.75,5.67l2.63.42ZM93.72,92.39c-.35-6.46-1.41-13.15-2.85-19.45-1.78-7.77-6.16-22.48-13.72-26.32-2.52-1.28-4.8,1.15-6.5,3.06-5.32,5.96-7.78,15.26-9.71,22.86.65.17,1.29.54,2,.36.18-.05,2.86-2.24,2.97-2.4.89-1.25.1-5.04,1.76-5.5,1.96-.55,2.16,1.92,2.02,3.38,1.78.38,1.72-2.05,1.86-3.29.21-1.99-.75-5.56,2.33-4.93,1.48.73.9,6.32,1.34,7.84l1.71.76c-.02-1.32-.27-4.79,1.7-4.59,2.39.25,1.3,5.1,1.93,6.49.39.87,3.65,3.48,4.57,4.58,2.66,3.15,4.9,7.73,6.31,11.62.68,1.86.26,4.19,2.26,5.55ZM178.01,72.56c-2.28-7.73-5.07-19.2-11.48-24.56-3.05-2.56-3.79-2.5-6.84-.04-10.48,8.46-12.88,31.49-14.87,44.05,2.38-.42,1.97-3.53,2.66-5.54,1.46-4.25,4.3-9.19,7.27-12.56,1.83-2.08,3.3-1.83,3.76-5.01.19-1.28-.44-4.58,1.39-4.75,2.16-.2,1.79,3.2,2.09,4.6,2.6-.01,1.72-4.61,1.95-6.64.14-1.16.5-2.43,1.98-2.08,1.95.46,1.17,6.66,1.82,8.31l1.5.03c.03-1.03-.31-2.71.76-3.25,3.53-1.02,1.69,3.8,2.77,5.44.11.17,3.02,2.29,3.21,2.33.61.15,1.36-.4,2.02-.33ZM203.18,72.18c-1.81-7.42-2.99-17.49-7.85-23.61-2.39-3.01-3.32-3.38-5.81-.16-4.4,5.7-6.1,16.01-7.31,23.01l2.65-.4c-.79-6.45,3.78-8.42,3.63-.73l1.34.37c.47-1.87-.35-8.05,1.73-8.4,2.8-.48,1.82,5.45,2.2,7.36.14.7.17,1.26,1.04,1.04.63-2.15.23-11.51,1.33-12.59s2.83-.14,2.85,1.37l.84,11.94,3.38.81ZM225.29,94.3c-.43-11.08-1.44-22.74-4-33.56-1.22-5.15-2.72-11.3-6.87-14.86-6.94,6.8-7.63,18.08-9.37,27.2l2.31,1.01c-.03-1.32-.34-3.19,1.36-3.44,3.19-.47,1.06,5.43,3.03,6.86,1.52.05-.78-12.83,3.66-9.75l1.68,14.72.57.38c.15-1.57.02-6.63.74-7.75.98-1.53,2.81-.17,3.06,1.48.6,3.89.11,8.51.86,12.48l2.97,5.23ZM33.84,73.3c-1.18-6.13-3.31-22.66-8.36-26.5-2.52-1.92-4.71,3.57-5.55,5.56-3.9,9.27-5.92,24.41-6.68,34.51-.21,2.86.51,5.88-.77,8.57,1.02.21.66-.26.95-.75,1.13-1.93,2.02-4.07,3.16-6.01l1.05-13.06c3.99-3.91,3.11,4.53,3.62,6.86.51.74,1.09-3.53,1.14-4.01.21-2.01.1-9.87,1.31-10.91.59-.51,1.77-.33,2.13.33.75,1.37.46,8.89.76,9.25,3.15-.91-.39-8.13,4.39-6.1l.57,3.05,2.28-.79ZM59.4,101.54l-10.29-20.8-8,1.75,9.52,20.4,8.77-1.35ZM72.75,101.16l-6.89-19.23-.62-.52-4.49-.85,3.62,20.6h8.39ZM178.39,80.57l-5.54,1.13-6.67,19.45,7.96-.05,4.24-20.54ZM197.84,82.48c-2.81-.44-5.4-2.06-8.34-1.85l-10.35,20.92,9.11,1.49,9.58-20.55ZM85.71,103.83l-5.56-15.99c-1.09-1.66-4.5-2.6-6.26-3.46l3.09,17.5,8.73,1.95ZM152.84,103.83l8.98-2.27,2.84-17.18-6.05,3.29-5.76,16.16ZM119.2,85.23c-6.39.64-13.37,8.75-14.62,14.77-1.53,7.37,8.52,15.19,15.28,15.2,5.86,0,15.49-7.67,15.32-13.78s-9.31-16.85-15.97-16.19ZM44.52,105.36l-14.35-14.84c-1.26-.22-6.85,7.9-7.7,9.32l12.01,10.41,10.05-4.89ZM208.4,90.53c-3.4,4.08-7.59,7.46-11.14,11.39-.6.66-2.07,2.26-2.48,2.87-.27.41-.6.27,0,.76l9.64,4.73c1.36-1.53,11.83-9.71,11.66-10.76-.89-1.17-1.59-2.49-2.46-3.66-.69-.93-3.46-4.49-4.14-5.02-.35-.27-.62-.48-1.09-.31ZM91.96,96.44c-1.03-1-2-2.08-3.19-2.91l2.36,12.13c3.87,1.66,7.54,3.75,10.98,6.17-1.33-5.85-5.93-11.29-10.15-15.4ZM150.17,93.54c-.66-.17-.76.27-1.15.57-5.49,4.24-10.42,11.73-12.96,18.12l11.23-6.5,2.88-12.18ZM99.37,114.97c-18.83-13.01-45.99-12.99-64.32.94-.02,1.98-.21,4.06-.06,6.03.23,2.94,2.34,7.13.76,9.54-.38.57-4.78,5.31-5.33,5.73-4.97,3.72-5.99-4.65-6.88-7.82-.56-.44-2.76,5.47-2.94,6.02-1.59,5.07-3.59,15.9,1.28,19.47,1.22.9,10.26,5.44,11.68,5.86,2.9.85,6.93.29,8.67-2.37-3.05-2.16-6.84-3.75-4.35-7.98,7.78-13.25,26.6-17.01,40.77-15.67,6.82.65,13.44,2.44,20.02,4.19.09-.55-.64-.5-1.05-.66-11.71-4.61-25.48-7.05-37.98-5.04-3.43-7.55-13.99-3.95-11.87,4.19-6.58,3.26-10.21,7.75-14.23,13.59-.23.34.06.7-.85.5-.6-2.56-2.59-7.11-1.83-9.65.21-.72,2.45-2.48,3.13-3.35,3.26-4.2,4.57-9.29,5.38-14.46,13.21-12.59,31.64-5.72,45.58,1.7,7.81,4.16,15.51,9.45,22.3,15.07,2.24-2.01,4.02-4.77,7.01-5.76.7-1.1-3.93-9.52-5.09-10.29-.79-.52-1.71.15-2.66.06-1.83-.17-4.35-1.04-5.7-2.35-2.75-2.67-1.63-4.14-1.45-7.51ZM215,129.39c-.46,2.73-1.53,10.08-5.71,8.56-.39-.14-5.53-5.28-5.94-5.88-2.57-3.65,1.84-11.21.51-15.76-11.43-9.65-28.92-12.77-43.49-10.08-15.51,2.86-31.48,13.38-36.17,29,2.13,1.53,4.53,3.21,5.79,5.55h.83c9.57-7.26,19.99-14.62,31.17-19.2,12.28-5.02,26.34-7.83,36.77,2.48,1.23,7.08,3.48,13.27,8.92,18.17l-2.23,9.65-3.82-5.52c-3.25-3.32-6.59-6.89-11.01-8.64,1.86-8.27-8.14-12.26-12.13-4.52-8.64-1.46-17.19-.66-25.67,1.32l-13.34,4.38c3.97-.76,7.76-2.17,11.74-2.94,17.84-3.42,38.45-1.51,49.66,14.57,3.1,4.45-4.43,6.89-4.18,8.35,1.67,1.96,4.57,2.41,7.04,2.14,1.8-.19,10.8-4.6,12.52-5.78,2.88-1.98,3.64-4.75,3.7-8.12.09-4.42-1.69-13.56-4.12-17.26-.24-.36.05-.69-.85-.49ZM19.36,106.12c-.09,1.66-2.82,7.89-1.53,8.96.41.34,7.32,2.9,7.74,2.8l5.6-5.09-11.81-6.67ZM219.19,106.12l-11.43,6.67,5.58,5.08,8.14-3-2.28-8.74ZM131.1,115.28c-.21-.21-4.11,2.65-4.81,3-2.29,1.13-5.36,2.17-7.92,1.91-1.06-.11-4.15-1.45-4.76-1.06-.14.99-1.33,2.13-1.13,3.1.13.6,2.84,4.27,3.43,5.37,1.02,1.88,1.71,3.86,2.59,5.8l1.87.13c1.21-3.96,3.23-7.61,5.62-10.97.68-.96,5.72-6.69,5.11-7.28ZM23.17,120.62l-6.48-.76c.76,1.79.24,3.83.38,5.72.75-.15,2.49.25,2.99-.06.25-.15,2.2-4.38,3.11-4.89ZM221.87,119.85l-6.1.77,3.05,4.76,2.63.15c.57-1.84.43-3.77.42-5.68ZM105.54,143.12c-19.04-8.71-41.34-9.46-58.35,4l4.38,4.28c12.29-6.01,26.19-8.8,39.72-5.67,3.77.87,7.21,2.59,10.96,3.51l3.3-6.13ZM135.37,149.14c1.15.67,7.79-2.19,9.55-2.69,14.3-4.09,29.03-1.66,42.12,5l4.31-3.94c-12.78-10.63-29.63-12.99-45.54-8.93-2.95.75-10.86,3.21-13.18,4.74-.67.44-.18.42-.01.76.34.7,2.51,4.92,2.76,5.07ZM224.92,140.45c-1.09-.23-.78.53-.78,1.35,0,2.42.88,4.83.02,7.42.25.03.76-.51.76-.57v-8.2ZM125.37,186.59c3.2-7.3,8.63-18.32,8.31-26.38-.26-6.43-6.09-14.6-12.42-16.22-8.29-2.12-16.44,7.89-17.14,15.44-.71,7.63,4.55,20.24,8.48,26.78.47-1.67-.55-4.35,2.09-4.19.94.63-.15,8.53,2.29,9.15.15-1.64.11-11.08,1.34-11.44.5-.15.8,0,1.13.39,1.01,1.21.71,9,.96,11.05,2.73-.06,1.19-7.47,2.26-8.22,2.66-.82,1.75,1.52,1.93,3.09.06.54.22,1.09.76.56ZM100.96,151.9c-5.7-1.31-11.05-4.11-16.97-4.58-9.48-.75-22.86,1.79-31.09,6.66-6.15,3.64-9.31,10.05-17.27,9.97-5.77-.06-10.17-4.6-15.51-5.96.21,4.7-2.96,4.15-5.99,5.26-2.39.87-5.01,2.92-5.83,5.42,2.04-2.93,8.96-6.98,11.82-3.63,2.61,3.05-3.87,7.59-6.49,8.4,1.71.74,1.38,2.84,1.71,4.38,2.29-3.2,5.03-6.15,8.52-8.08-.24-2.56-.96-4.57-.32-7.18,3.6.78,6.77,3.82,10.49,4.19,8.54.86,10.4-3.98,16.24-8.16,7.67-5.5,22.04-9.1,31.43-8.61,6.38.33,12.31,2.77,18.32,4.6.88.21,1.04-2.58.94-2.69ZM219.58,157.23c-6.86,2.89-12.57,8.22-20.46,6.16-4.23-1.1-7.13-5.09-10.69-7.62-11.18-7.94-28.59-10.47-41.69-6.74-3.31.94-6.46,2.87-9.92,2.86-.05.56-.08,1.73.6,1.89.42.1,6.88-2.49,8.18-2.84,13.5-3.64,31.43-.47,42.51,8.21,3.69,2.89,5.51,6.2,10.73,6.81,5.89.69,9.18-2.05,14.26-4.15,1.08,1.28-.36,6.22-.2,6.5.13.23,3.34,2.25,4.02,2.84,10.69,9.34,13.14,22.62,12.58,36.24-.02.46.29,1.42-.38,1.33v-5.52c-1.43-12.37-7.29-25.45-19.45-30.32,4.06,3.65,7.46,6.97,10.11,11.81,5,9.12,6.86,19.82,5.53,30.14l1.7-2.68,3.67-2.52c-.85-2.94-.19-6.09-.39-9.11-.37-5.35-1.49-11.4-3.44-16.39-1.46-3.76-5.85-8.15-2.3-11.62-3.16,0-10.44-5.95-6.68-8.78,3.19-2.4,11.18,1.72,11.64,5.73.65.02.83.2.74-.55-.28-2.47-3.18-5.11-5.33-6.12-2.75-1.3-5.83-1.15-5.34-5.53ZM66.18,155.43c-2.74.29-13.31,1.97-11.45,6.28s10.06,2.87,13.33.94c5.2-3.06,5.52-7.99-1.88-7.21ZM168.36,155.4c-1.73.4-2.11,2.29-1.7,3.83.61,2.3,5.9,4.91,8.14,5.21,2.85.38,10.58-.59,8.73-4.92-1.09-2.55-12.64-4.7-15.16-4.12ZM99.79,163.37c-8.06-2.28-17.36.12-20.63,8.47-.76,1.95-2.94,8.31.45,8.27,3.2-8.53,14.58-8.44,22.13-6.87l-1.94-9.88ZM160.04,179.3c.08-12.3-10.46-19.43-22.03-15.92l-1.96,9.86c7.72-1.66,18.63-1.51,22.31,6.86l1.68-.8ZM221.48,285.75v7.44c0,3.65-3.41,10.84-6.51,12.94-4.48,3.04-8.34-3.9-9.61-7.5-2.32-6.58-2.02-15.28,1.18-21.53,1.47-2.88,5.15-7.21,8.46-4.32-1.99-12.47-.02-25.17,3.44-37.18l-2.29,3.43c-.57.53-.43-.41-.36-.74.27-1.25,1.58-4.59,2.15-5.84.24-.53.98-.54,1.09-1.21.2-1.17-.65-2.94.14-4.37.28-.5,1.05-.15,1.16-.25.35-.34-.76-1.78-.8-2.47-.05-.84.42-1.74.43-2.66.06-5.05.1-10.22-.43-15.24-.04-.37-.17-1.43-.73-1.37v7.82c0,1.17-1.31,5.97-1.72,7.44-.3,1.06-2.44,7.61-3.05,7.62l-2.1-1.14c11.54-23,.14-57.56-29.55-54.91-8.65.77-13.66,6.01-20.78,9.73-9.73,5.08-21.05,8.06-31.99,9.01l-1.58,3.37c13.27-1.41,26.71-4.72,38.25-11.51,2.78-1.64,5.19-3.87,8.14-5.21,14.47-6.59,29.97.3,36.05,14.56,4.95,11.6,3.15,24.17-1.99,35.35-5.3-1.62-2.09,3.27-4.03,6.06-2.57,3.7-6.55,6.7-10.27,9.18-.95-.46-.45-2.09.19-2.47,1.19-.71,2.61.78,3.44-.76l-2.29-.57c2.18-1.21.22-3.67,0-5.91-.12-1.23-.39-4.73,1.01-5.09l1.1.32.18,4.58.76-.56.38-3.25c1.09,2.34.49,5.47,4.03,3.43l.36.76c.84-.29.49-2.81.75-3.83.38-1.46,2.59-4.69,3.32-6.6,1.34-3.48,1.84-4.01-1.71-6.05-2-1.15-4.14-1.53-6.36-2.02l1.38-2.43c3.73.1,8.3-.1,8.56-4.81.4-7.41-9.82-4.38-13.94-5.17-.83-.16-1.18-.8-1.72-1.33,5.11-1.17,9.07-5.39,5.66-10.61-1.96-3-6.62-3.55-9.19-1.03-1.87,1.83-3.45,8.26-7.14,7.84,6.41-7.61-3.13-11.1-8.78-6.49-3.33,2.71-2.66,7.83-5.34,11.25,2.48-.72,4.72-2.25,7.23-2.87,14.04-3.47,29.63,14.76,17.94,26.33l2.67,1.34c-1.09,2.02-2.38-.31-4.19.75l.76-1.52c-1.23.37-2.16,1.08-3.51,1.29-.92.14-3.47.64-3.94.66-.7.03-.48-.76-.82-.82-.67-.12-1.73.41-2.55.04l-.25-1.55c-1.41-.48-1.52.63-1.61.67-.52.26-4.09-1.87-5-2.26-30.94-13.13-74.1-13.84-105.72-2.61-8.06,2.86-16.95,10.13-24.94,3.98-12.15-9.35,3.01-30.09,17.91-26.3,1.9.48,3.83,2.07,5.7,1.93-1.26-1.36-1.9-3.46-2.39-5.24-.67-2.47-.29-4.78-2.17-6.6-2.25-2.18-5.03-2.9-8.12-2.37-5.87,1-3.35,7.05-1.05,10.4-2.51.35-4.75-3.5-5.92-5.52-1.53-2.66-1.42-5.28-4.74-5.94-6.61-1.32-9.3,7.63-5.75,12.23l5.34,3.42c-1.6,2.19-4.03.1-5.94-.15-2.33-.31-8.4-.19-9.88,1.88-2.4,3.36.54,8.65,4.28,9.44,1.83.39,3.25-.5,5-.23l1.2,2.42c-2.13,0-9.74,2.74-9.47,5.24.09.87,1.89,5,2.4,6.03,1.33,2.7,3.32,5,4.79,7.61l2.85-4.58c.49-.75,4.64-4.2,5.15-3.81-.13.84,1.11,1.71.99,2.31s-1.94,2.89-2.42,4.07c-.39.95-1.75,5.58-1.55,6.31,2.6,3.06,6.57,4.29,10.05,5.99l2.86-10.67c2.85.43,1.72,2.6,1.91,4.76s.36,4.46.85,6.58c1.3,1.5,10.51-1.11,12.45-2.24.39-.63-1.82-7.47-.71-10.05.29-.68.94-1.59,1.55-.73.76,1.07.96,6.98,2.83,8.55,1.25-1.5,10.64-4.68,11.08-5.32.89-1.31-1.17-5.99-.37-6.54l2.02-.3,2.34,5.68,12.55-3.08-.73-7.6,3.24.76,1.56,6.12,12.75-.78.96-6.5h1.33s.78,6.48.78,6.48l12.39,1.07,1.51-5.62,3.24-1.15-.33,7.19,11.91,2.75,2.53-5.21,2.29.22-1.14,6.46c4.08,1.33,7.91,3.24,11.63,5.32.57-.04,2.37-4.38,2.11-5.28l2.66-.02-.4,4.18c-2.75-.08-3.87,2.87-2.27,4.97-3.52-1.63-7-3.93-10.69-5.51-22.11-9.49-53.41-9.37-75.38.49-10.03,4.5-14.86,10.21-27.22,7.91-30.54-5.7-41.24-57.03-11.94-69.57,16.61-7.11,24.15,3.68,37.64,9.55,8.62,3.75,20.42,6.9,29.81,7.57,1.45.1-.34-3.11-1.22-3.37-1.2-.35-3.68-.3-5.16-.56-10.51-1.92-20.26-4.75-29.54-10.12-6.29-3.64-9.99-7.36-17.87-8.07-23.1-2.07-36.22,19.16-33.7,40.18,2.76,22.99,24.51,45.36,48.76,35.51,3.71-1.51,6.92-4.16,10.54-5.86,21.57-10.13,54.33-10.16,75.91-.11,4.23,1.97,7.77,4.84,12.24,6.45,10.45,3.77,20.26,1.52,29.34-4.42l2.79.89c-7.13,5.92-17.21,9.13-26.46,7.77-5.52-.81-10.39-3.26-15.11-6.06.62,4.77-3.05,8-6.75,10.22-16.12,9.69-50.56,9.6-67.12.91-3.89-2.04-8.82-5.84-8.13-10.75-27.97,18.67-59.67-9.81-58.73-39.28-.69.14-.71.75-.77,1.32-.84,7.81-.42,16.42,1.57,24.01.77,2.94,1.78,5.84,3.4,8.43.07,1.12-.43.32-.7-.07-1.13-1.68-2.01-3.61-3.04-5.35-.11-.18-.57-1.21-.84-.69,2.75,10.1,5.11,20.72,4.6,31.29-.12,2.53-.96,5.22-.77,7.8,4.69-5.33,9.09.81,10.86,5.35,2.78,7.14,2.45,18.4-2.48,24.58-3.65,4.58-6.35,3.84-9.72-.56-.29,1.75,2.18,2.67,2.68,4.56.32,1.22.11,1.89-.2,3.06,2.31.2,4.35-.27,6.28-1.53,3.04,7.72,10.33,7.99,13.74.39,4.34,3.73,9.65,2.77,13.73-.77,2.4,8.28,10.72,8.42,13.73.39,5.68,5.18,13.19,5.4,19.07.38,4.02,7.25,12.9,7.46,16.78,0,3.08,2.41,8.64,4.96,12.59,4.95,4.25-.02,9.14-3.01,12.77-4.95,3.32,7.36,12.38,7.25,16.24.39,6.87,4.95,13.39,3.87,19.8-1.15,1.85,7.73,10.72,8.73,13.17.77,2.26.61,4.63,2.56,7.05,2.6,2.54.03,5.4-1.95,7.63-2.98,2.29,7.5,10.6,8,13.17.39,2.13,1.39,4.43,1.19,6.86,1.15-.89-3.86,2.15-5.38,3.64-8.38,1.72-3.49,2.35-7.48,2.81-11.31l-.73-5.49ZM27.36,174.01c-13.74,5.69-20.2,22.93-18.66,36.96l3.4,1.17c-1.22-11.85,2.85-24.49,10.48-33.56l4.77-4.57ZM106.69,187.74l-4.05-10.24c-5.69-.72-14.69-1.15-16.54,5.67,6.75,1.96,13.53,3.96,20.59,4.58ZM131.1,187.74c4.76-.62,9.57-1.46,14.19-2.78,1.4-.4,4.66-1.26,5.76-1.87.36-.2.74-.32.61-.82-3.17-5.8-11.65-6.1-17.12-4.16l-3.43,9.63ZM84.95,206.04c-.37-1.16-1.06-2.04-1.53-3.23-1.59-4.06-1.4-9-6.32-10.84-3.06-1.14-7.72.17-7.79,3.95-.01.69,1.35,5.52,1.73,5.92,1.41,1.48,11.49,3.28,13.92,4.19ZM152.46,206.42l14.11-4c2.76-5.16.81-9.55-5.51-8.56-5.29.83-6.22,8.88-8.6,12.56ZM101.73,208.71c-2.7-4.63-4.13-12.83-11.25-12.2-5.3.47-4.8,6.62-2.86,10.1l14.11,2.1ZM150.5,206.76c.82-2.75,1.09-7.14-2.52-7.87-6.53-1.33-9.54,5-11.93,9.82l14.44-1.95ZM117.75,209.86c1.02-1.05-3.32-7.42-4.37-8.4-5.5-5.13-13.31.84-10.14,7.47l14.5.94ZM127.56,199.65c-2.95.54-7.04,6.33-7.74,9.05-.12.47-.31.61.2.98l14.27-.63.44-.33c1.98-4.96-1.79-10.06-7.17-9.07ZM222.24,228.16c1.23-4.24,3.07-8.45,3.05-12.96l-3.26,11.8.21,1.16ZM116.99,236.55h-1.52c-.04,1.27.05,7.37-1.38,7.61-1.81.29-1.41-5.99-1.67-7.23-4.39-.18-14.73.55-13.71,7.03.64,4.1,10.47,6.22,13.95,6.65,6.01.74,19.69.03,24.04-4.66,5.65-6.09-7.15-10.24-11.69-9.02.1,9.91-3.27,9.17-3.05-.19,0-.33-.8-.25-.95-.19-1.13.48-.45,7.15-1.52,8.39-1.27,1.31-1.89-.61-2.07-1.75-.31-2.01-.3-4.58-.42-6.64ZM223.39,238.85c-7.11-2.57-7.65,7-.36,5.17l.36-2.89h-2.29c-.38.89,1.46.9.76,1.9-1.03,1.48-4.58-2.32-1.41-3.53,1.1-.42,2.36.77,2.93-.65ZM19.36,296.81c1.7,6.97,7.52,11.61,11.71,3.13,1.36-2.75,1.92-5.5,1.54-8.57-.36-2.87-3.44-11.99-7.25-11.29s-6.37,10.07-6.76,13.29c1.32-1.35,1.26-3.29,2.67-4.76.47-.49,2.15-1.69,2.79-1.64,2.94.77,5.66,5.5,5.04,8.3-.75,3.43-4.55,6.6-7.82,3.99-.92-.73-1.06-1.89-1.92-2.46ZM219.96,293.38c-1.05-6.85-6.59-20.87-12.27-7.88-2.44,5.57-2.97,10.98.74,16.17,4.59,6.42,8.85.87,10.76-4.29.06-1.16-.41-.26-.69.07-1.21,1.42-1.9,2.75-4.09,2.81-2.92.08-5.35-3.96-5.04-6.59.37-3.07,3.9-8.74,7.29-5.58l3.3,5.28ZM19.02,323.46c12,2.45,24.15,4.26,36.38,5.39,29.78,2.74,60.14,2.74,90.01,1.91,20.54-.57,42.16-1.55,62.43-5.07,1.51-.26,11.08-2.1,11.59-2.52.77-.62,1.67-6.25.16-6.9l-.44,5.29c-15.73,3.18-31.78,5.04-47.81,6.15-40.76,2.82-86.3,2.69-126.95-1.95-8.5-.97-17.02-3.15-25.23-4.14-1.08-.13.11,1.36-.13,1.85Z"/>
    <path class="cls-1" d="M223.39,238.85c-.57,1.42-1.83.23-2.93.65-3.17,1.21.38,5.01,1.41,3.53.7-1.01-1.14-1.02-.76-1.9h2.29s-.36,2.88-.36,2.88c-7.3,1.83-6.75-7.74.36-5.17Z"/>
    <path d="M156.95,269.05c2.46-.24,5.44,1.32,7.45,2.66,11.89,7.96,11.92,28.15-.39,35.7-3.39,2.08-5.93,2.87-9.75,1.52-8.23-2.9-13.27-13.44-12.43-21.8.76-7.62,6.94-17.27,15.13-18.08ZM169.23,291.47c-.68-4.63-6.83-13.15-11.91-12.88-5.94.32-12.51,10.7-12.08,16.07.39,4.87,5.09,10.18,9.63,11.75,4.77,1.65,9.07-1.25,12.08-4.83.36-.43.93-.62.76-1.34-3.63,3.16-7.33,5.1-12.09,3.13-2.71-1.12-6.87-5.19-6.92-8.27-.03-1.75,2.1-5.61,3.21-7.03,4.67-5.98,10.5-5.75,15.19,0l2.13,3.4Z"/>
    <path d="M118.81,267.9c4.2-.31,10.87,3.28,13.81,6.22,11.56,11.54,6.44,30.49-8.56,35.67-12.79,4.42-25.3-9.91-24.23-22.32.77-8.85,9.94-18.91,18.98-19.57ZM118.42,278.22c-5.41.67-10.43,6.35-12.64,11.01-1.86,3.94-2.4,5.4-.38,9.44,6.02,12.05,21.96,11.8,28.05-.07,2.11-4.11,1.3-6.48-.76-10.44-2.49-4.76-8.45-10.66-14.27-9.94Z"/>
    <path d="M50.06,270.3c3.28.08,7.22,3.93,8.89,6.56,4.85,7.66,4.48,18.18-.54,25.64-9.84,14.63-21.41-1.74-21.15-13.52.14-6.32,5.17-18.86,12.8-18.68ZM43.38,301.77c1.34,2.06,4.76,4.52,7.26,4.04,4.66-.89,9.44-7.96,9.12-12.57-.3-4.18-4.58-12.98-9.12-13.82-3.28-.61-7.55,4.48-8.4,7.47,2.61-2.29,3.91-4.16,7.37-1.84,2.39,1.6,5.45,7,5.06,9.86-.47,3.38-4.3,8.19-8.04,8.03-1.31-.06-2.03-1.07-3.25-1.17Z"/>
    <path d="M79.9,269.05c2.77-.39,6.89,1.65,9.04,3.36,10.89,8.63,10.1,27.87-1.89,35.09-4.22,2.54-6.86,2.88-11.38.68-7.1-3.45-11.27-13.41-10.51-21.05s6.99-17,14.74-18.08ZM80.66,278.58c-5.7.54-12.16,10.41-12.14,15.75s6.92,12.83,12.43,12.78c5.38-.05,12.23-7.59,12.41-12.79.11-3.06-3.28-9.54-5.37-11.8-1.44-1.57-5.17-4.14-7.33-3.94Z"/>
    <path d="M188.49,270.3c7.41-.17,12.76,12.51,12.81,18.7.09,10.76-10.08,27.47-20.41,14.65-6.34-7.87-6.37-20.7-.04-28.58,1.54-1.91,5.09-4.71,7.63-4.77ZM183.1,303.16c4.37,4.2,9,2.98,12.45-1.58,3.93-5.2,3.27-9.87.52-15.4-2.94-5.91-7.65-9.71-12.89-3.45s-6.03,14.71-.09,20.43Z"/>
    <path d="M98.2,267.91c2.28-.2,5.76,2.41,5.85,4.69.1,2.48-3,6.12-5.56,6.12-2.41,0-5.44-3.48-5.52-5.78s3.12-4.84,5.22-5.03Z"/>
    <path d="M95,302.67c4.93-5.31,11.8,2.85,7.65,7.08-4.66,4.73-13.13-1.17-7.65-7.08Z"/>
    <path d="M140.44,300.79c3.25,0,6.68,4.82,4.7,7.97-2.36,3.74-7.78,3.53-9.8-.36-1.53-2.93,2.05-7.6,5.1-7.6Z"/>
    <path d="M143.55,277.23c-5.17,4.77-12.41-4.45-5.95-8.43,4.92-3.03,11.59,3.23,5.95,8.43Z"/>
    <path d="M182.97,238.08h-1.53s.38-4.31.38-4.31l1.34-1.02c.42,0,2.31,4.88,2.41,5.63.14,1.07-.34,1.63-.32,2.16,0,.23.7.18.77.47.19.78-.36,2.51.36,3.02l3.64.16c1.61-1.95-2.23-.18-2.46-1.52l4.95-2.29-.05,3c-7.52,3.92-16.58,4.67-24.36,1.01,1.33-.46,2.7.41,3.25-1.34l.19,1.15c1.04.47,1.22-.76,1.31-.75,1.47.1,3.89,1.13,5.74,1.15,1.53.02,2.87-.53,4.39-.41v-6.1ZM184.87,239.98h-1.14v4.2h1.14v-4.2Z"/>
    <path d="M36.01,267.92c1.93-.16,3.84,3.02,3.92,4.71s-1.79,6.01-3.66,6.19c-4.75-.92-5.18-10.49-.26-10.89Z"/>
    <path d="M199.88,269.1c3.56-3.61,7.43,2.23,5.16,6.88-3.51,7.2-9.26-2.72-5.16-6.88Z"/>
    <path d="M202.67,300.71c2.46-.22,4.34,5.03,3.77,7.18-1.49,5.64-7.23,3.9-7.43-1-.06-1.54,1.95-6.02,3.66-6.18Z"/>
    <path d="M63.85,267.93c2.07-.07,3.91,3.27,3.88,5.06-.04,2.14-2.48,7.04-5.08,5.14-3.61-2.64-2.9-10.07,1.21-10.2Z"/>
    <path d="M36.7,300.78c2.08-.09,3.94,4.02,3.94,5.76,0,2.13-1.67,4.25-3.61,5.07-5.75-.33-4.13-10.66-.33-10.83Z"/>
    <path d="M175.15,300.76c3.74.04,5.5,10.54-.32,10.83-5.32-.77-3.53-10.87.32-10.83Z"/>
    <path d="M177.12,269.1c2.47,2.56,1.32,7.74-1.66,9.37-2.17,1.18-4.07-3.03-4.28-4.77-.43-3.51,2.9-7.76,5.94-4.6Z"/>
    <path d="M62.56,301.51c2.85-2.65,5.64,3.31,5.2,6.15-.28,1.8-2.46,4.59-4.44,3.75-3.78-1.6-3.36-7.47-.76-9.9Z"/>
    <path d="M210.04,230.84c.09.88.63,1.44,1.53,1.53l-5.41,7.54c-.7.39-2.22-.38-3.01.62-.68.87.11,2.18-.72,2.51l-.21-3.04c2.54-2.16,3.82-5.71,7.28-6.48l-.22-2.49.76-.19Z"/>
    <path d="M168.11,241.86l1.89,1.17c-2.42.87-3.88-2.2-1.53-3.43l-.36,2.26Z"/>
    <path d="M213.09,229.69c-.4,2.44-1.96,2.64-2.66.18l2.66-.18Z"/>
    <path d="M95.15,32.23c3.6-.19,9.2,3.95,9.2,7.73,0,3.53-5.13,9.37-8.91,9.37s-8.66-5.57-8.85-9.05,5.18-7.87,8.57-8.05Z"/>
    <path d="M142.83,32.23c2.47-.13,6.26,1.94,7.66,3.97,1.75,2.54,1.85,3.82.64,6.61s-4.62,6.51-8.01,6.51c-4.38,0-9.48-6.5-8.4-10.72.74-2.89,5.2-6.22,8.11-6.38Z"/>
    <path d="M56.87,33.8c4.46-4.35,8.9,2.54,8.56,6.81-.32,4.01-4.39,12.23-8.69,6.59-2.93-3.83-3.5-9.86.14-13.4Z"/>
    <path d="M177.37,48.41c-4.13-3.52-4.9-13.09.69-15.66,3.93-1.81,7.22,4.22,6.95,7.72-.24,3.04-3.53,11.45-7.63,7.94Z"/>
    <path d="M34.8,32.3c4.6,1.61,5.31,6.56,3.17,10.63-1.71,3.25-3.71,4.2-5.97.77-2.63-3.99-2.06-9.76,2.8-11.4Z"/>
    <path d="M203.75,32.3c4.6,1.61,5.31,6.56,3.17,10.63-1.71,3.25-3.71,4.2-5.97.77-2.63-3.99-2.06-9.76,2.8-11.4Z"/>
    <rect class="cls-1" x="183.73" y="239.98" width="1.14" height="4.2"/>
    <path d="M129.44,300.87c-1.56,1.52-5.44,3.44-7.62,3.43-4.06-.02-9.56-4.16-10.39-8.23-.97-4.76,6.01-12.96,10.97-12.53,3.24.28,6.54,3.35,8.13,6.01,2.62,4.37,2.75,7.56-1.1,11.32Z"/>
    <path d="M80.68,283.54c4.5-.39,11.09,6.91,11.09,11.17,0,4.52-6.52,9.52-10.82,9.52s-10.57-4.71-10.69-9.13,5.92-11.17,10.42-11.56Z"/>
    <path d="M189.73,283.92c3.97-.4,8.14,7.04,8.11,10.42s-4.16,8.58-7.82,8.58-7.64-4.94-7.79-8.24,3.98-10.41,7.5-10.76Z"/>
    <path d="M222.31,237.79c-.31,1.36-.71,2.7-1.19,4.01-.21.57.57.91.96.56.68-.63,1.1-1.44,1.61-2.2.24-.35.51-.69.85-.94.15-.11.32-.21.5-.27.06-.02.12-.04.17-.05l-.2-.11s0,.31,0,.34c-.06.44-.32.85-.51,1.25-.22.46-.41.94-.56,1.42-.31,1-.48,2.04-.65,3.07-.12.72.85,1,1.1.3.62-1.68,1.19-3.37,1.72-5.08.12-.38-.29-.87-.7-.7-.92.37-1.39,1.14-1.85,1.98-.52.94-1.15,1.78-1.92,2.53l.96.56c.74-2.03,2.44-3.55,3.04-5.66.18-.64-.7-.98-1.05-.44-.55.86-1.05,1.75-1.49,2.67s-.72,1.84-1.13,2.74c-.07.16-.31.61-.46.3-.17-.35-.11-.9-.11-1.28.01-.52.07-1.03.19-1.54.06-.24.12-.48.2-.72.04-.12.12-.45.26-.51l-.7-.7c-.2.81-.39,1.61-.59,2.42-.16.66-.45,1.38-.44,2.07,0,.61.4,1.16,1.06,1.14.61-.03,1.11-.53,1.39-1.03.33-.58.53-1.27.68-1.92.09-.38.16-.77.21-1.16.04-.32.12-.67,0-.97-.14-.36-.5-.54-.88-.45-.3.07-.51.3-.7.52-.46.56-.79,1.18-1.04,1.86-.1.27.11.66.4.7.59.09,1.16-.11,1.44-.67.34-.66-.58-1.19-.99-.58-.61.92-1.1,1.9-1.48,2.94l1.1.3c.22-1.13.32-2.29.24-3.44-.02-.24-.08-.5-.06-.75.02-.21.16-.35.27-.52.29-.46.47-.98.55-1.52.09-.63-.66-1-1.05-.44-.72,1.04-1.27,2.18-1.68,3.38l1.12.15c-.07-1.28-.16-2.56-.44-3.81-.1-.42-.66-.55-.96-.25-.72.74-1.12,1.69-1.14,2.73,0,.47.48.67.86.49.98-.46,1.7-1.32,2.02-2.34.18-.56-.56-.93-.96-.56-.73.69-1.35,1.51-1.81,2.41-.34.67-1,1.95-.06,2.45.28.15.61.06.78-.21.47-.73.83-1.96.08-2.65-.69-.63-1.91-.01-1.66.93.19.73,1.2.4,1.1-.3l-.04-.28c-.08-.6-.95-.48-1.1,0-.23.71-.25,1.44-.1,2.17.08.39.53.49.84.34.44-.21.63-.71.49-1.17-.08-.26-.29-.39-.55-.42-.96-.1-1.49.98-1.21,1.79s1.16,1.44,1.93,1.73c.73.27,1.73.02,1.73-.91s-.92-1.67-1.71-1.98c-.3-.12-.62.13-.7.4-.13.41,0,.85.3,1.14.33.32.78.38,1.22.43.64.07.78-1.01.15-1.12-.53-.1-1.05-.2-1.58-.3-.71-.13-1.02.9-.3,1.1l.56.16c.71.2,1.01-.9.3-1.1l-.56-.16-.3,1.1c.53.1,1.05.2,1.58.3l.15-1.12c-.08,0-.44-.05-.42-.12l-.7.4c.32.13.62.37.79.68.02.03.04.07.05.11.02.09.05.08.11-.03,0,0-.04.01-.05,0-.03-.03-.32-.08-.38-.11-.33-.16-.64-.38-.89-.65-.09-.1-.24-.28-.23-.43,0-.17.06-.16.16-.15l-.55-.42s.04-.08.03-.12l.84.34c-.11-.53-.06-1.04.1-1.56h-1.1l.04.28,1.1-.3c.02.17-.02.25-.13.25-.09-.06-.1-.05-.05,0-.02.05.02.22.02.28-.03.33-.17.63-.35.9l.78-.21c.07.19.1.21.09.06.01-.04.03-.08.04-.12.04-.16.11-.32.18-.47.14-.32.3-.63.48-.93.36-.6.8-1.13,1.31-1.61l-.96-.56c-.24.76-.77,1.33-1.49,1.66l.86.49c.01-.73.29-1.4.8-1.92l-.96-.25c.26,1.15.33,2.33.4,3.5.04.65.92.77,1.12.15.37-1.11.9-2.14,1.56-3.11l-1.05-.44c-.07.52-.25.97-.54,1.41s-.33.85-.29,1.39c.1,1.15.05,2.3-.18,3.43-.14.73.85.99,1.1.3.35-.94.81-1.83,1.36-2.66l-.99-.58s-.07.16-.15.14l.4.7c.11-.31.25-.6.42-.88.08-.13.16-.26.25-.38.05-.07.1-.13.16-.2.16-.12.1-.17-.16-.13l-.26-.34c.11.28-.06.81-.12,1.1-.08.39-.17.77-.29,1.14-.1.32-.21.64-.37.93-.07.12-.14.24-.24.33-.06.06-.29.13-.14.18.11.04.06,0,.07-.14.02-.15.07-.3.1-.45.1-.4.2-.81.3-1.21.2-.81.39-1.61.59-2.42.09-.38-.28-.88-.7-.7-.63.26-.88.76-1.08,1.38-.22.68-.35,1.4-.4,2.12-.06.96-.11,2.87,1.28,2.91s1.66-1.69,2.06-2.66c.54-1.3,1.21-2.55,1.96-3.74l-1.05-.44c-.59,2.09-2.3,3.63-3.04,5.66-.2.56.57.93.96.56.72-.69,1.35-1.47,1.86-2.33.37-.62.69-1.59,1.41-1.89l-.7-.7c-.53,1.71-1.1,3.4-1.72,5.08l1.1.3c.2-1.24.4-2.51.86-3.69.38-.98,1.34-2.21.74-3.3s-2.23.09-2.76.69c-.74.84-1.15,1.92-1.97,2.68l.96.56c.48-1.31.88-2.65,1.19-4.01.16-.72-.94-1.02-1.1-.3h0Z"/>
    <path d="M167.63,238.29c.66.48-.16,1.77-.41,2.26-.22.45-.46.9-.78,1.29s-.72.84-.43,1.37c.25.45.73.33,1.14.49.32.13.61.35.89.55.64.46,1.3.93,2.13.9.31-.01.57-.25.57-.57,0-.73-.69-1.04-1.24-1.36-.33-.19-.66-.38-.98-.58-.27-.16-.58-.3-.82-.51-.46-.39-.31-1.03-.2-1.55.14-.71.33-1.4.55-2.09.2-.61-.75-1.02-1.05-.44-.26.52-.52,1.05-.79,1.57-.24.48-.6,1.01-.71,1.54-.09.48.11.93.48,1.24s.8.39,1.24.51.54.4.8.75c.32.43.75.58,1.25.69,1.11.24,2.23.47,3.34.71.5.11,1.04-.57.56-.96-1.29-1.04-2.89-1.37-4.49-1.63-.3-.05-.62.08-.7.4-.07.27.09.65.4.7,1.36.22,2.87.44,3.98,1.33l.56-.96c-.96-.21-1.93-.41-2.89-.62-.32-.07-.85-.07-1.08-.34-.26-.31-.4-.66-.74-.89s-.72-.3-1.09-.41c-.17-.05-.51-.13-.49-.35s.23-.48.32-.67.2-.4.3-.6c.24-.48.48-.97.73-1.45l-1.05-.44c-.22.69-.41,1.38-.55,2.09s-.26,1.41.04,2.06c.28.61.89.93,1.44,1.26.33.19.66.38.98.58.15.09.31.18.46.27.07.04.15.1.22.13.11.05.05.14.05,0l.57-.57c-.61.02-1.11-.43-1.58-.77-.26-.18-.52-.37-.8-.5-.17-.08-.34-.15-.53-.2s-.36-.03-.53-.08l.25.15h0c.03.1.05.19.08.29,0-.1.31-.4.38-.49.18-.24.34-.48.48-.74.27-.48.51-.97.73-1.47.43-1,.52-2.17-.46-2.87-.25-.18-.64-.04-.78.21-.17.29-.05.6.21.78h0Z"/>
    <path d="M184.88,244.05c.2-.93.31-1.88.31-2.83,0-.45-.02-.9-.07-1.34-.06-.48-.23-.92-.73-1.07-.29-.09-.63.11-.7.4-.23.93-.45,1.87-.56,2.82-.06.45-.09.9-.08,1.35.01.53.06.99.6,1.22.22.09.54-.06.65-.26.17-.32.32-.66.42-1.01l-1.1-.3c-.05.24-.1.49-.15.73-.06.3.09.62.4.7.28.08.64-.1.7-.4.05-.24.1-.49.15-.73.15-.72-.88-1.01-1.1-.3-.08.26-.18.5-.31.74l.65-.26-.05-.02.25.15c.05.04.03.16.05.08.02-.08,0-.19-.01-.27,0-.2,0-.39,0-.59.02-.35.05-.71.11-1.06.12-.76.3-1.51.49-2.26l-.7.4c.05.02-.17-.08-.14-.12.01.04.02.08.03.12,0-.05,0-.04,0,.01.02.18.03.36.04.54.02.37.03.75.02,1.12-.02.73-.11,1.45-.26,2.16-.06.3.09.62.4.7.29.08.64-.1.7-.4h0Z"/>
    <path d="M185.49,244.29c1.11,0,2.2-.31,3.15-.89.26-.16.36-.51.21-.78-.17-.29-.5-.33-.78-.21-.37.16-.7.38-1.01.63s-.15.88.25.96c.9.18,1.82.24,2.74.16.31-.03.57-.24.57-.57,0-.29-.26-.6-.57-.57-.81.07-1.63.04-2.43-.11l.25.96c.23-.19.51-.33.78-.45l-.58-.99c-.78.48-1.66.73-2.57.73-.74,0-.74,1.15,0,1.14h0Z"/>
    <path d="M198.62,237.05c-.72.16-1.22.81-1.77,1.26-.07.06-.14.11-.21.17.05-.04-.01,0-.03.02-.04.03-.08.06-.12.09-.14.11-.29.21-.44.31-.31.21-.62.4-.94.58l.84.65s.07-.18.04-.11.04-.07.04-.08c.05-.09.11-.18.17-.26-.07.1.02-.02.03-.03.03-.04.06-.07.1-.1s.07-.07.11-.1c.02-.02.05-.04.07-.06-.05.03-.05.04-.02.02.09-.06.17-.12.26-.17.04-.02.09-.05.13-.07.03-.01.16-.07.04-.02.2-.08.4-.13.61-.16l-.72-.55s0,.07,0,.1c-.01.15.02-.06,0,.02-.02.07-.03.14-.05.21,0,.03-.02.06-.03.09-.04.1.02-.03-.01.02-.04.06-.07.13-.11.19-.02.03-.13.16-.05.08-.05.06-.1.11-.15.16-.03.03-.06.06-.09.08-.04.04-.05.03,0,0-.07.04-.14.09-.21.13-.26.14-.37.53-.21.78.17.27.5.36.78.21.77-.41,1.24-1.22,1.28-2.08,0-.18-.09-.34-.23-.45-.16-.12-.31-.13-.5-.1-1.08.15-2.03.92-2.38,1.96-.16.49.42.88.84.65.64-.36,1.25-.78,1.83-1.24.27-.21.53-.44.78-.67.06-.05.12-.11.18-.16.03-.02.05-.05.08-.07.07-.06-.06.04,0,0,.06-.04.13-.08.2-.12.09-.05-.03,0,.03-.01.04,0,.08-.02.12-.03.29-.07.49-.42.4-.7-.1-.31-.39-.47-.7-.4h0Z"/>
    <path d="M205.5,238.89c-.04.1-.09.19-.15.28-.03.04-.05.08-.08.12,0,.01-.11.14-.06.08s-.05.06-.06.07c-.04.04-.08.08-.11.12-.07.07-.14.14-.22.21s-.15.13-.23.2c-.11.09.1-.07-.02.02-.05.04-.09.07-.14.11-.17.12-.34.24-.51.36-.72.5-1.49,1.04-1.86,1.87l1.05.44c.14-.45.28-.9.42-1.34.07-.21.13-.42.2-.63.03-.09.06-.18.09-.27-.03.09.03-.07.03-.07.02-.04.05-.08.07-.12.05-.08-.08.07.03-.04,0,0,.11-.1.06-.06s.07-.04.08-.04c-.12.06.07-.01-.01,0-.04,0-.03,0,.03,0h-.06c-.06-.03-.11-.08-.13-.14-.07-.12-.1-.15-.07-.07-.03-.02,0-.1,0,0,0,.04,0,.08,0,.12,0-.08,0-.06,0,0,0,.04-.02.07-.04.11.04-.11,0-.02-.01.01-.02.03-.04.07-.06.1.07-.11-.02,0-.03.02-.07.08.04-.02,0,.01-.03.02-.07.04-.1.06-.1.06.09-.03-.04.01l.44,1.05c.23-.17.46-.35.7-.52s.39-.5.21-.78c-.15-.24-.53-.4-.78-.21-.23.17-.46.35-.7.52s-.35.43-.23.71c.11.25.4.42.67.33.56-.18,1.01-.66,1.11-1.24.06-.33.04-.73-.2-1-.26-.28-.69-.32-1.03-.2-.68.23-.94.87-1.14,1.5s-.38,1.24-.57,1.85c-.08.27.08.57.33.67s.6.03.71-.23c.04-.1.09-.19.15-.28.03-.04.05-.08.08-.12.02-.02.03-.05.05-.07-.04.05-.05.07-.02.03.15-.15.27-.3.43-.44.08-.07.16-.13.23-.19-.11.09,0,0,.02-.02.05-.04.09-.07.14-.1.17-.12.34-.24.51-.36.72-.5,1.48-1.05,1.85-1.88.12-.27.09-.63-.21-.78-.25-.13-.65-.09-.78.21h0Z"/>
    <path d="M212.26,229.49c-.78.94-1.5,1.92-2.14,2.96h.99c-.04-.1,0,.03-.01-.03-.01-.03-.02-.06-.04-.1-.03-.07-.05-.14-.07-.22-.05-.15-.08-.31-.11-.47,0-.04-.01-.08-.02-.13,0,.06,0,.06,0,0,0-.08-.01-.15-.02-.23,0-.16,0-.32,0-.48,0-.03.01-.06,0-.09v.07s0-.05,0,0c-.01.04-.04.07-.07.09-.02.04-.05.06-.09.07-.07.07.02-.03.05,0,0,0-.12.01-.03,0,.05,0,.09,0,.14-.01.08,0,.17-.01.25-.02.35-.03.7-.06,1.05-.08l-.4-.98c-.11.13-.23.26-.35.38-.06.05-.11.11-.17.16-.04.03-.07.06-.11.09-.08.07.04-.03-.01.01-.28.2-.56.37-.87.51-.27.12-.36.54-.21.78.18.28.49.34.78.21.67-.3,1.27-.76,1.74-1.32.15-.18.21-.4.12-.62-.08-.2-.3-.37-.52-.35-.41.03-.83.07-1.24.1-.24.02-.5.02-.72.14s-.39.34-.43.59c-.15.84.04,1.74.38,2.51.08.18.31.28.49.28.21,0,.39-.11.49-.28.3-.49.62-.97.96-1.44.08-.12.17-.23.25-.34.04-.06.08-.11.13-.17.02-.03.04-.06.06-.08,0,0,.07-.09.04-.05s.03-.04.04-.05c.02-.03.04-.06.07-.08.04-.06.09-.11.13-.17.09-.12.19-.23.29-.35.19-.23.24-.59,0-.81-.21-.19-.6-.25-.81,0h0Z"/>
    <path d="M196.93,228.31c.4.71.89,1.36,1.45,1.95.18.18.48.22.69.09.2-.12.36-.42.26-.65-.23-.57-.55-1.17-1-1.6-.17-.16-.41-.25-.65-.19-.29.08-.43.35-.45.63-.03.33-.03.66-.03.99,0,.65.02,1.3.07,1.94.03.35.09.71.42.9.4.24.78,0,1.09-.26.57-.49.97-1.29.54-2.01-.16-.26-.51-.36-.78-.21s-.37.52-.21.78c.01.02.05.08.02.02.01.02.03.09,0,.02,0,.02,0,.1,0,.03,0,.04-.02.08-.03.12-.01.05-.04.09-.07.14-.02.03-.1.11-.15.16-.06.06-.14.11-.2.17-.04.05-.06,0,.24.09.14-.02.22.02.26.11.01.03.02.04,0,0-.02-.07,0,.12,0,0,0-.05,0-.1-.01-.15,0-.11-.02-.23-.02-.34-.02-.41-.04-.81-.04-1.22,0-.22,0-.43,0-.65,0-.1,0-.2,0-.3,0-.05,0-.1,0-.15,0-.02,0-.17,0-.08l-.15.25.03-.03-.4.17h.05c-.13-.05-.27-.11-.4-.16.32.26.6.77.74,1.13l.96-.56c-.51-.53-.91-1.08-1.28-1.72-.15-.27-.52-.36-.78-.21s-.36.51-.21.78h0Z"/>
    <path d="M213.71,226.03c-.5.77-.9,1.59-1.2,2.46-.22.62-.38,1.38-1.01,1.7l.84.65c.38-1.48.87-2.92,1.48-4.32.26-.6-.38-1.11-.9-.69-.65.52-1.3,1.06-1.74,1.78-.48.78-.73,1.67-1.23,2.45-1.07,1.66-2.24,3.27-3.36,4.9-.31.45.2.92.65.84,1.79-.33,3.36-1.52,4.17-3.14.15-.29.06-.6-.21-.78-.67-.46-1.38.18-1.88.58-.62.49-1.16,1.06-1.65,1.68-.45.57.36,1.39.81.81.33-.42.68-.82,1.07-1.18.18-.17.38-.34.57-.5.1-.08.2-.16.31-.23.06-.04.26-.12.19-.17l-.21-.78c-.7,1.38-1.96,2.33-3.49,2.61l.65.84c1.09-1.59,2.21-3.16,3.27-4.76.49-.74.77-1.54,1.17-2.32s1.06-1.3,1.72-1.82l-.9-.69c-.65,1.49-1.19,3.02-1.59,4.59-.13.5.4.87.84.65.75-.38,1.11-1.14,1.38-1.9.33-.94.7-1.82,1.25-2.66.4-.62-.59-1.19-.99-.58h0Z"/>
    <path d="M208.03,225.16c-1.12.5-1.63,1.7-2.15,2.72-.66,1.31-1.32,2.62-1.98,3.93-.33.65.61,1.22.99.58,1.16-1.94,2.32-3.88,3.48-5.82h-.99c.21.33-.22.88-.38,1.16-.25.43-.53.85-.83,1.26-.61.83-1.29,1.61-1.97,2.39l.98.4c0-1,.7-1.86,1.05-2.76.17-.43.24-.87.35-1.32.09-.37.18-.78.53-.99.64-.37.07-1.34-.58-.99-1.25.69-1.8,2.04-2.28,3.31-.29.78-.58,1.56-.88,2.34-.27.69-.59,1.36-1.11,1.89l.81.81c1.19-1.29,2.41-2.55,3.67-3.78.53-.52-.28-1.33-.81-.81-1.25,1.23-2.47,2.49-3.67,3.78-.5.54.29,1.33.81.81,1.07-1.08,1.5-2.63,2.02-4.02.44-1.18.84-2.68,2.02-3.33l-.58-.99c-1.02.59-.98,1.77-1.31,2.75-.38,1.13-1.17,2.05-1.18,3.3,0,.47.64.79.98.4.84-.96,1.68-1.92,2.4-2.97.58-.83,1.63-2.19.96-3.22-.23-.36-.76-.38-.99,0-1.16,1.94-2.32,3.88-3.48,5.82l.99.58c.61-1.22,1.22-2.43,1.84-3.65.46-.92.88-2.15,1.88-2.59.28-.13.35-.54.21-.78-.17-.29-.5-.33-.78-.21h0Z"/>
    <path d="M195.4,238.88l-3.9,2.54c-.56.36-.19,1.16.44,1.05.87-.15,1.7-.44,2.48-.84l-.58-.99c-.8.62-1.61,1.23-2.41,1.85-.23.17-.36.43-.23.71.11.25.4.42.67.33.67-.21,1.33-.48,1.96-.81.54-.28,1.32-.61,1.46-1.27.06-.29-.08-.63-.4-.7-.87-.19-1.77-.14-2.59.19l.7.4c.04.17-.04.08.04.06.04,0,.13-.1.17-.13.19-.12.38-.23.56-.34.42-.26.85-.51,1.27-.77.83-.51,1.66-1.01,2.49-1.52.63-.38.05-1.37-.58-.99-.99.6-1.97,1.2-2.96,1.8-.48.29-.97.56-1.43.87s-.79.73-.67,1.31c.06.28.43.51.7.4.64-.26,1.31-.34,1.98-.19l-.4-.7c-.02.1-.03.05.02,0-.02.02-.04.05-.06.06-.11.07-.22.14-.34.21-.24.14-.49.27-.74.4-.49.24-.99.44-1.51.6l.44,1.05c.8-.62,1.61-1.23,2.41-1.85.24-.19.37-.49.21-.78s-.51-.35-.78-.21c-.7.36-1.44.59-2.21.73l.44,1.05,3.9-2.54c.62-.4.04-1.39-.58-.99h0Z"/>
    <path d="M179.2,223.84c-.03.67.66,1.13,1.13,1.49.5.39,1.04.71,1.61.98,1.16.53,2.38.84,3.64,1.02l.15-1.12c-1.74-.11-3.44-.61-4.97-1.45l-.14,1.05c.92-.28,1.88-.18,2.83-.09s1.96.17,2.93-.05c.72-.16.41-1.27-.3-1.1-1.91.43-3.85-.44-5.76.13-.46.14-.58.8-.14,1.05,1.71.94,3.6,1.48,5.55,1.6.63.04.79-1.03.15-1.12-1.05-.15-2.1-.38-3.09-.78-.48-.2-.94-.44-1.37-.73-.21-.14-.42-.29-.61-.45-.09-.07-.17-.15-.26-.22-.06-.05-.11-.1-.17-.16-.08-.09-.1-.1-.05-.04.04-.74-1.11-.73-1.14,0h0Z"/>
    <path d="M192.97,225.15c.54.42,1.12.76,1.69,1.13s1.02.82,1.5,1.28c.74.69,1.92,1.24,2.26,2.25.23.7,1.26.42,1.1-.3-.48-2.25-2.7-3.28-4.61-4.12-.54-.23-1.08-.47-1.63-.67-.45-.16-1.21-.55-1.64-.21-.97.77.81,2.12,1.4,2.5l.14-1.05c-.15.03-.28,0-.42-.04-.71-.2-1,.87-.3,1.1.74.25,1.48.49,2.21.74.59.2,1.2.44,1.68.86l.25-.96.07-.03.25.15h-.02c-.41-.61-1.41-.03-.99.57.24.35.58.48.99.41s.56-.68.25-.96c-.58-.51-1.25-.82-1.97-1.08-.8-.29-1.62-.55-2.43-.82l-.3,1.1c.35.1.67.1,1.02.04.51-.09.52-.8.14-1.05-.24-.15-.45-.32-.65-.51-.1-.09-.19-.19-.27-.29-.04-.05-.09-.1-.12-.16-.07-.12-.08-.13-.05-.04l-.17.4.05-.06-.25.15.08-.02h-.3c.69.13,1.36.43,2,.7.67.29,1.35.57,2,.91,1.13.58,2.22,1.4,2.5,2.7l1.1-.3c-.4-1.21-1.47-1.8-2.38-2.59-.53-.46-.99-.98-1.57-1.39s-1.24-.74-1.81-1.18c-.24-.19-.57-.24-.81,0-.2.2-.25.62,0,.81h0Z"/>
  </g>
  <g>
    <path d="M286.95,122.53c0-.18.7-1.82,2.1-4.93.37-3.34.55-7.63.55-12.86l-.18-10.86.36-19.61c0-9.85-.27-16.94-.82-21.26-.55-4.32-.82-6.57-.82-6.75,0-.55.09-1.23.27-2.05.18-.82.27-1.38.27-1.69l-.18-1.82c0-2.13,1.38-3.57,4.15-4.33,2.77-.76,8.47-1.14,17.1-1.14,8.15,0,15.25.59,21.3,1.78,6.05,1.19,11.27,3.03,15.65,5.52,4.38,2.49,7.51,5.17,9.4,8.03,1.88,2.86,3.24,5.52,4.06,7.98.82,2.46,1.23,6.67,1.23,12.63,0,4.14-.62,7.72-1.87,10.76-1.25,3.04-3.48,7.1-6.71,12.18-3.22,5.08-6.92,9.4-11.08,12.95-4.17,3.56-8.64,6.42-13.41,8.58-4.77,2.16-10.23,3.69-16.38,4.61-4.56.67-7.65,1.67-9.26,3.01-1.61,1.34-2.42,4.38-2.42,9.12,0,2.01.21,4.24.64,6.71.42,2.46.64,5.09.64,7.89l-.18,4.1c0,1.22.12,2.59.37,4.11l.36,2.28v1.28c0,.97-.18,1.6-.55,1.87s-1.38.56-3.06.87c-1.67.31-3.3.76-4.88,1.37-1.58.61-2.49.91-2.74.91-.31,0-.97-.21-2.01-.64-1.04-.43-2.04-.74-3.01-.96-.97-.21-1.46-.53-1.46-.96,0-.36.56-1.17,1.69-2.42,1.12-1.25,1.69-2.57,1.69-3.97v-.55c.3-2.43.74-4.83,1.32-7.21.58-2.37.87-5.56.87-9.58,0-2.37-.11-4.88-.32-7.53-.21-2.65-.43-4.17-.64-4.56-.21-.39-.61-.91-1.19-1.55-.58-.64-.87-1.02-.87-1.14v-.18ZM301,114.87c4.93-.79,9.56-1.84,13.91-3.15,4.35-1.31,8.29-2.78,11.81-4.42,3.53-1.64,6.11-3.25,7.75-4.83,1.64-1.58,3.48-3.5,5.52-5.75,2.04-2.25,3.6-4.11,4.7-5.56.55-1.46,1.4-3.51,2.55-6.16,1.15-2.65,1.87-5.12,2.14-7.43.27-2.31.41-5.02.41-8.12,0-6.75-1.61-11.66-4.83-14.73-3.22-3.07-6.95-5.99-11.18-8.76-4.23-2.77-10.6-4.15-19.11-4.15h-6.39c-2.98,0-5.06.68-6.25,2.05-1.19,1.37-1.78,3.79-1.78,7.25l.73,14.23-.18,15.69v20.71c0,5.47.06,9.85.18,13.14Z"/>
    <path d="M469.89,41.61c4.26-.3,9.55,4.39,15.87,14.09,6.32,9.7,9.49,20.33,9.49,31.88,0,5.9-.55,11.49-1.64,16.79s-2.74,10.13-4.93,14.5c-4.68,9.67-8,15.93-9.94,18.79-4.32,6.39-9.2,11.49-14.64,15.33-5.44,3.83-11.01,6.65-16.69,8.44-5.69,1.79-12.09,2.69-19.2,2.69-16.91,0-26-1.49-27.28-4.47-1.22-.49-3.04-1.14-5.47-1.96-2.43-.82-3.74-1.35-3.92-1.6l-2.37-2.92c-2.13-.55-3.25-.82-3.38-.82-6.39-4.01-11.07-9.49-14.05-16.42-2.98-6.93-4.47-16.75-4.47-29.47,0-9.79,3.31-21.19,9.94-34.21.42-.85.81-1.93,1.14-3.24.33-1.31,1.06-2.39,2.19-3.24,1.12-.85,1.75-1.61,1.87-2.28,5.17-5.72,8.22-9.23,9.17-10.54.94-1.31,3.15-2.66,6.61-4.06,3.47-1.4,5.75-3.07,6.84-5.02.37-.61.9-.84,1.6-.68.7.15,1.23.23,1.6.23l.73-.18c.42-.55.87-1.05,1.32-1.51s.79-.65,1-.59c.21.06,2.54-.67,6.98-2.19,4.44-1.52,7.01-2.2,7.71-2.05.7.15,3.33-.11,7.89-.78l5.93-1.09c1.4,0,3.07.23,5.02.68,1.95.46,3.25.75,3.92.87,11.13,1.16,18.18,2.83,21.16,5.02ZM472.63,132.38c7.36-13.38,11.04-25.63,11.04-36.76,0-7.6-.88-14.41-2.65-20.43-1.76-6.02-4.32-11.14-7.66-15.37-3.35-4.23-7.27-7.62-11.77-10.17-4.5-2.55-10.23-4.26-17.2-5.11-6.96-.85-11.12-1.28-12.45-1.28-.18,0-.73.32-1.64.96s-1.73,1.45-2.46,2.42c-.79.36-1.79.55-3.01.55l-3.01-.18c-2.25,0-3.92.94-5.02,2.83-.12.12-.3.18-.55.18-.3,0-.55-.3-.73-.91l-1.37.73v1.28c-.18,0-.4-.21-.64-.64-.24-.42-.52-.64-.82-.64h-.36c-5.78,2.01-9.15,3.68-10.13,5.02-1.46.55-2.59.88-3.38,1-.73.73-1.84,2.07-3.33,4.01-1.49,1.95-2.71,3.48-3.65,4.61-.94,1.13-1.86,2.07-2.74,2.83-.88.76-1.32,2.11-1.32,4.06-3.16,2.86-5.69,7.69-7.57,14.5-1.89,6.81-2.83,13.87-2.83,21.16,0,6.69,1,12.74,3.01,18.15,2.01,5.41,4.47,8.82,7.39,10.22v1.92c1.88,2.19,3.89,4.23,6.02,6.11,2.13,1.89,5.23,3.54,9.31,4.97,4.07,1.43,7.53,2.55,10.35,3.38s5.99,1.5,9.49,2.05c3.5.55,6.98.82,10.45.82,2.07,0,3.71-.06,4.93-.18l6.48-1.55c1.95-.42,3.5-.73,4.65-.91.42-.12,2.04-1.03,4.83-2.74l6.57-3.74c.61-.3,1.06-.64,1.37-1,.37-.49.55-1.03.55-1.64v-.73c.3-.61,1.47-1.49,3.51-2.65,2.04-1.16,3.66-2.07,4.88-2.74,1.22-.67,1.82-1.49,1.82-2.46,0-.79-.12-1.43-.36-1.92Z"/>
    <path d="M620.54,37.51h.73c1.09,0,2.07.59,2.92,1.78s1.49,1.78,1.92,1.78h.55c1.03,0,1.55.55,1.55,1.64,0,.79-.5,2.16-1.5,4.1-.35.12-.65,1.13-.88,3.01-.29,2.31-2.12,9.79-5.46,22.44-2.74,10.4-5.17,18.92-7.3,25.54-2.62,7.91-5.2,14.47-7.75,19.71l-5.47,9.85c-.24.85-.43,1.73-.55,2.65-.3,1.64-2.83,5.41-7.57,11.31-3.83,4.87-8.03,9.18-12.59,12.95-8.15,6.87-13.2,10.31-15.14,10.31-.91,0-1.9-.21-2.96-.64-1.06-.43-1.75-.67-2.05-.73-2.07,1.28-3.5,1.92-4.29,1.92-.43,0-.76-.06-1-.18-2.98.37-5.14.55-6.48.55-4.8,0-9.85-1.93-15.14-5.79s-8.94-9.93-10.95-18.2c-2.01-8.27-3.47-19.16-4.38-32.66-.91-13.5-1.64-23.31-2.19-29.42s-1.2-11.96-1.96-17.56c-.76-5.59-1.28-8.53-1.55-8.8s-.75-.41-1.41-.41c-.73-4.01-1.1-6.26-1.1-6.75,0-.85.21-1.7.64-2.55.43-.85.82-1.49,1.19-1.92.37-.42,1.31-.82,2.83-1.19,1.52-.37,2.88-.78,4.06-1.23,1.19-.46,1.99-.88,2.42-1.28.42-.4.7-.59.82-.59.18,0,.65.41,1.41,1.23.76.82,1.67,1.61,2.74,2.37,1.06.76,1.6,2.18,1.6,4.24,0,.85-.18,1.87-.55,3.06-.37,1.19-.55,3.03-.55,5.52l.18,6.2-.18,6.48c0,14.9.42,27.05,1.28,36.44.85,9.4,1.65,16.09,2.41,20.07.76,3.98,1.9,8.8,3.42,14.46,1.52,5.66,3.72,9.81,6.61,12.45,2.88,2.65,4.63,4.14,5.24,4.47.61.33,2.01.5,4.19.5.3,2.01,2.73,3.01,7.29,3.01,4.01,0,8.32-1.19,12.94-3.56,4.62-2.37,8.14-5.12,10.57-8.26,2.43-3.13,4.65-6.6,6.65-10.4s3.98-7.21,5.92-10.22c1.95-3.01,4.28-7.43,7.02-13.27,2.73-5.84,5.26-13.41,7.56-22.71l.64-2.37c.67-1.58,1.09-3.79,1.28-6.61.18-2.83.82-4.64,1.91-5.43,2.86-11.55,4.28-19.07,4.28-22.53,0-2.01-.15-3.68-.46-5.02-.3-1.34-.46-2.8-.46-4.38,0-2.55.93-3.92,2.78-4.11,1.86-.18,3.3-.61,4.33-1.28Z"/>
    <path d="M682.43,50.74c-.67-.42-1.92-1.49-3.74-3.19-1.83-1.7-3.95-2.55-6.39-2.55-9.73,0-17.39,2.19-22.99,6.56-5.6,4.38-8.39,10.15-8.39,17.32,0,7.78,8.31,16,24.9,24.65,1.09,0,2.36.12,3.79.37,1.43.24,3.83,1.99,7.21,5.25,3.38,3.25,5.94,6.17,7.71,8.76,1.76,2.59,3.1,5.2,4.01,7.85.91,2.65,1.37,5.28,1.37,7.89,0,11.56-2.71,20.5-8.12,26.82-5.41,6.33-15.05,12.01-28.92,17.06-.73-.24-1.4-.37-2.01-.37-.97,0-2.51.53-4.61,1.6-2.1,1.06-6.37,1.6-12.82,1.6-2.31,0-3.94-.96-4.88-2.87-.94-1.92-1.41-4.76-1.41-8.53,0-1.03.42-2.1,1.28-3.19h.73c1.58,0,3.22.94,4.93,2.83,3.71.85,5.99,1.28,6.84,1.28.67,0,3.54-.32,8.62-.96,5.08-.64,9.88-2.08,14.41-4.33,4.53-2.25,7.62-4.41,9.26-6.47,1.64-2.07,3.25-4.54,4.83-7.43,1.58-2.89,2.37-6.18,2.37-9.89,0-5.53-1.69-10.83-5.07-15.91-3.38-5.08-7.08-7.98-11.09-8.71v-.27c0-1.03-1.37-2.34-4.11-3.92-10.69-4.89-18.18-9.72-22.47-14.49-4.29-4.77-6.43-10.41-6.43-16.92,0-2.61.35-5.17,1.05-7.66.7-2.49,1.72-4.88,3.06-7.16,1.34-2.28,2.99-4.38,4.97-6.29,1.98-1.92,4.64-3.85,7.98-5.79,3.34-1.95,5.69-2.92,7.02-2.92h2.83c.18-.12.85-.82,2.01-2.1,1.58-.12,3.38-.61,5.38-1.46,2.01-.85,3.28-1.37,3.83-1.55.61.37,1.03.88,1.28,1.55,1.7-.36,3.44-.55,5.2-.55h1.92c2.8,0,4.96.37,6.48,1.09,1.52.73,2.28,2.28,2.28,4.65,0,1.95-.44,3.79-1.32,5.52-.88,1.73-1.81,2.69-2.78,2.87Z"/>
    <path d="M770.41,36.05c4.88,16.78,20.2,52.88,45.98,108.29,3.47,5.17,5.2,9.55,5.2,13.14,0,.85-.29,1.61-.87,2.28-.58.67-2.71,1.55-6.39,2.65-3.68,1.09-6.1,1.88-7.25,2.37-.91-1.09-1.37-2.16-1.37-3.19,0-.91.12-1.95.37-3.1l.46-1.37c0-2-.99-6.14-2.98-12.4-1.98-6.26-5.38-14.23-10.18-23.91-.49-.24-.99-.93-1.5-2.05-.52-1.13-1.81-1.69-3.88-1.69-1.15,0-2.28.58-3.37,1.74-.18-.49-1.46-.94-3.83-1.37l-2.74-.73h-2.74c-6.2,0-10.5.35-12.91,1.05-2.4.7-3.66,1.05-3.78,1.05-.85,0-1.52-.46-2.01-1.37-3.77,1.04-6.55,1.43-8.35,1.19s-3.57-.37-5.33-.37c-4.01,0-7.74.47-11.17,1.41-3.44.94-5.65,1.43-6.66,1.46-1,.03-1.96.81-2.87,2.33l-1.28-.91c-6.2,12.83-10.83,22.93-13.86,30.29-.37,4.56-1.32,8.44-2.87,11.63-1.55,3.19-2.96,4.79-4.24,4.79h-.18c-2.07-.85-6.29-1.86-12.68-3.01-.97-.18-1.46-.73-1.46-1.64,0-2.01,1.06-3.88,3.19-5.61,2.13-1.73,3.34-3.06,3.65-3.97,2.01-3.77,3.83-6.39,5.47-7.85,2.19-2.61,4.95-6.91,8.26-12.9,3.32-5.99,6.04-10.02,8.17-12.08.06-2.67,2.97-8.42,8.72-17.23,5.75-8.81,10.73-17.08,14.93-24.8,4.2-7.72,6.54-11.88,7.03-12.49,8.42-12.11,12.63-20.36,12.63-24.74v-.37c1.4,0,2.1-.3,2.1-.91v-.91c0-2.25,1.49-4.69,4.47-7.3l1.28.55c1.58-2.01,2.83-3.01,3.74-3.01,1.09,0,1.64.82,1.64,2.46,0,.97-.18,1.85-.55,2.64ZM774.87,110.95c1.7-.49,3.46-.73,5.29-.73,4.2-.79,6.29-1.98,6.29-3.56,0-.12-3.53-9.12-10.58-27-7.05-17.88-11.67-26.82-13.86-26.82-1.52,0-4.49,4.23-8.89,12.68-4.41,8.45-9.35,17.14-14.83,26.04-5.47,8.91-8.21,14.37-8.21,16.38,0,1.4.91,2.34,2.74,2.83,1.82.49,2.89.73,3.19.73l1.73-.18c1.03,0,2.43.15,4.19.46,1.76.31,2.98.46,3.65.46,1.46,0,3.84-.24,7.16-.73,3.31-.49,5.4-.73,6.25-.73s1.88.12,3.1.37c1.22.24,2.01.36,2.37.36.85,0,1.46-.42,1.82-1.28,1.52.49,2.89.73,4.11.73l2.83-.18c.67,0,1.22.06,1.64.18Z"/>
    <path d="M901.6,39.33c9.8,4.2,17.39,10.57,22.78,19.11,5.39,8.54,8.08,18.14,8.08,28.78,0,4.01-.52,8.06-1.55,12.13-1.1,4.08-2.68,8.12-4.75,12.13-2.07,4.01-4.63,7.94-7.67,11.77-3.04,3.83-6.48,7.45-10.32,10.86-3.96,3.53-8.25,6.78-12.88,9.76-4.81,3.1-9.89,5.87-15.25,8.3l-6.39,4.2-8.04,2.55c-4.2,1.4-6.33,2.1-6.39,2.1-.43,0-1-.12-1.73-.36-.37.61-.98,1.19-1.83,1.73-.85.55-1.37.82-1.55.82h-2.56c-.55,1.16-1.57,2.07-3.06,2.74-1.49.67-2.6,1-3.33,1-.55,0-1.45-.09-2.7-.27-1.25-.18-2.21-.27-2.88-.27h-.64c-1.34,0-2.01-1.43-2.01-4.29,0-.36.18-1.43.55-3.19,2.13-10.82,3.19-22.35,3.19-34.57l-.37-27.82.18-27.46c0-7.05-.2-12.07-.59-15.05-.4-2.98-.59-7.12-.59-12.41,0-2.01.09-3.19.27-3.56.97-.37,1.46-.97,1.46-1.82h3.2l.55-1.55c3.35,1.89,6.91,2.83,10.68,2.83,1.22,0,2.28-.09,3.2-.27l2.56-.46c.37,0,1.23.12,2.6.36,1.37.24,2.3.37,2.79.37l2.19-.37c2.01-.24,4.05-.36,6.12-.36,6.33,0,11.67.32,16.03.96,4.35.64,6.53,1.17,6.53,1.6.73.24,1.25.37,1.55.37.36,0,1.22-.12,2.56-.37ZM852.82,144.69c-.24,1.46-.37,2.53-.37,3.2,0,4.5,1.19,6.76,3.56,6.76,3.9,0,8.33-.85,13.29-2.56,4.96-1.7,9.94-4.2,14.93-7.49,2.68-1.76,5.01-3.07,6.99-3.93,1.98-.85,5.65-3.9,11.01-9.13,3.47-3.41,6.49-7.01,9.04-10.82,2.56-3.8,4.66-7.84,6.3-12.1,2.43-6.27,3.65-10.74,3.65-13.42,0-9.25-1.05-17.15-3.15-23.69-2.1-6.54-5.69-12.1-10.78-16.66-5.09-4.56-10.86-7.62-17.31-9.18-6.46-1.55-16.23-2.33-29.33-2.33l-.73,1.92h-.73c-.91,0-1.74-.18-2.47-.55-4.01,3.96-6.02,21.33-6.02,52.13l.82,45.28-.18.73c0,.85.49,1.46,1.46,1.83Z"/>
    <path d="M1013.69,36.05c4.88,16.78,20.2,52.88,45.98,108.29,3.47,5.17,5.2,9.55,5.2,13.14,0,.85-.29,1.61-.87,2.28-.58.67-2.71,1.55-6.39,2.65-3.68,1.09-6.1,1.88-7.25,2.37-.91-1.09-1.37-2.16-1.37-3.19,0-.91.12-1.95.37-3.1l.46-1.37c0-2-.99-6.14-2.98-12.4-1.98-6.26-5.38-14.23-10.18-23.91-.49-.24-.99-.93-1.5-2.05-.52-1.13-1.81-1.69-3.88-1.69-1.15,0-2.28.58-3.37,1.74-.18-.49-1.46-.94-3.83-1.37l-2.74-.73h-2.74c-6.2,0-10.5.35-12.91,1.05-2.4.7-3.66,1.05-3.78,1.05-.85,0-1.52-.46-2.01-1.37-3.77,1.04-6.55,1.43-8.35,1.19s-3.57-.37-5.33-.37c-4.01,0-7.74.47-11.17,1.41-3.44.94-5.65,1.43-6.66,1.46-1,.03-1.96.81-2.87,2.33l-1.28-.91c-6.2,12.83-10.83,22.93-13.86,30.29-.37,4.56-1.32,8.44-2.87,11.63-1.55,3.19-2.96,4.79-4.24,4.79h-.18c-2.07-.85-6.29-1.86-12.68-3.01-.97-.18-1.46-.73-1.46-1.64,0-2.01,1.06-3.88,3.19-5.61,2.13-1.73,3.34-3.06,3.65-3.97,2.01-3.77,3.83-6.39,5.47-7.85,2.19-2.61,4.95-6.91,8.26-12.9,3.32-5.99,6.04-10.02,8.17-12.08.06-2.67,2.97-8.42,8.72-17.23,5.75-8.81,10.73-17.08,14.93-24.8,4.2-7.72,6.54-11.88,7.03-12.49,8.42-12.11,12.63-20.36,12.63-24.74v-.37c1.4,0,2.1-.3,2.1-.91v-.91c0-2.25,1.49-4.69,4.47-7.3l1.28.55c1.58-2.01,2.83-3.01,3.74-3.01,1.09,0,1.64.82,1.64,2.46,0,.97-.18,1.85-.55,2.64ZM1018.15,110.95c1.7-.49,3.46-.73,5.29-.73,4.2-.79,6.29-1.98,6.29-3.56,0-.12-3.53-9.12-10.58-27-7.05-17.88-11.67-26.82-13.86-26.82-1.52,0-4.49,4.23-8.89,12.68-4.41,8.45-9.35,17.14-14.83,26.04-5.47,8.91-8.21,14.37-8.21,16.38,0,1.4.91,2.34,2.74,2.83,1.82.49,2.89.73,3.19.73l1.73-.18c1.03,0,2.43.15,4.19.46,1.76.31,2.98.46,3.65.46,1.46,0,3.84-.24,7.16-.73,3.31-.49,5.4-.73,6.25-.73s1.88.12,3.1.37c1.22.24,2.01.36,2.37.36.85,0,1.46-.42,1.82-1.28,1.52.49,2.89.73,4.11.73l2.83-.18c.67,0,1.22.06,1.64.18Z"/>
    <path d="M541.25,182.49c1.03,1.34,1.55,2.4,1.55,3.2l-.06,3.56c0,6.02.57,15.03,1.7,27.01,1.14,11.98,2.57,24.02,4.29,36.12,1.72,12.1,3.42,23.15,5.09,33.16,1.67,10,2.62,15.81,2.83,17.42s.78,3.06,1.69,4.33c.98,2.01,1.46,3.32,1.46,3.92,0,1.16-1.06,1.73-3.19,1.73h-.73l-2.01,2.65c-1.34.36-3.01.67-5.02.91-2.01.24-3.22.55-3.65.91-.18,0-.4-.37-.64-1.09-.18-.67-.37-1.73-.55-3.19-.19-1.4-.34-3.16-.46-5.29l-.65-17.15c-.12-6.87-.34-11.37-.64-13.5-1.1-6.99-2.14-14.29-3.11-21.89l-2.01-17.79c-1.22-10.46-2.21-17.74-2.97-21.85-.76-4.11-1.87-6.55-3.33-7.34-23.05,44.94-34.58,68.48-34.57,70.61,0,.3.12,1.06.37,2.28-.55.79-1.06,1.7-1.55,2.74.55.67.82,1.37.82,2.1-3.65,3.59-5.84,6.87-6.57,9.85-.91.91-1.73,1.37-2.46,1.37-.43,0-1.72-.91-3.88-2.74-2.16-1.82-3.54-4.35-4.15-7.58-.42-.24-.82-.58-1.18-1-.36-.43-.7-.94-1-1.55-.24-.55-.48-1.22-.73-2.01l-.54-2.56c-.18-.91-.33-1.95-.45-3.1l-4.57-9.76-8.77-20.07c-6.51-15.44-11.54-26.57-15.07-33.38-.49.43-.94.9-1.37,1.41-.43.52-.88,2.27-1.37,5.25-1.4,7.78-3.2,16.84-5.4,27.18l-4.48,21.89c-1.59,8.03-2.62,15.75-3.11,23.17-.06.79-.35,2.02-.87,3.7-.52,1.67-.78,3-.78,3.97,0,.18.09.82.27,1.92s.27,2.25.27,3.47c0,4.5-.76,7.42-2.28,8.76-1.16.06-2.36.55-3.6,1.46-1.25.91-2.08,1.37-2.51,1.37h-.27c-.97,0-2.1-.59-3.38-1.78-1.28-1.19-2.19-1.96-2.74-2.33,4.51-5.05,9.56-25.24,15.16-60.57.79-5.11,2.44-12.79,4.96-23.04,2.52-10.25,3.77-17.75,3.77-22.49l-.18-8.03c0-4.32.64-7.68,1.92-10.08,1.28-2.4,3.02-3.6,5.22-3.6,3.05,0,5.04,2.92,5.95,8.75,1.59.73,2.42,1.75,2.48,3.05.06,1.31.38,3.51.96,6.61.58,3.1,2.69,8.39,6.34,15.87l5.38,10.58v3.29c1.09,3.29,3.83,9.63,8.2,19.03,4.37,9.4,7.41,15.34,9.12,17.84,1.7,2.49,3.16,3.74,4.38,3.74,3.71,0,8.12-6.6,13.23-19.8.97-2.49,3.34-7.53,7.09-15.11,3.75-7.58,6.56-14,8.43-19.26,1.87-5.26,4.02-9.74,6.47-13.45.97-1.52,2.28-4.85,3.92-9.98,1.64-5.14,3.4-8.78,5.29-10.94,1.88-2.16,3.95-3.24,6.2-3.24.36,0,1.03.12,2.01.37Z"/>
    <path d="M643.78,187.05c4.88,16.78,20.2,52.88,45.98,108.29,3.47,5.17,5.2,9.55,5.2,13.14,0,.85-.29,1.61-.87,2.28-.58.67-2.71,1.55-6.39,2.65-3.68,1.09-6.1,1.88-7.25,2.37-.91-1.09-1.37-2.16-1.37-3.19,0-.91.12-1.95.37-3.1l.46-1.37c0-2-.99-6.14-2.98-12.4-1.98-6.26-5.38-14.23-10.18-23.91-.49-.24-.99-.93-1.5-2.05-.52-1.13-1.81-1.69-3.88-1.69-1.15,0-2.28.58-3.37,1.74-.18-.49-1.46-.94-3.83-1.37l-2.74-.73h-2.74c-6.2,0-10.5.35-12.91,1.05-2.4.7-3.66,1.05-3.78,1.05-.85,0-1.52-.46-2.01-1.37-3.77,1.04-6.55,1.43-8.35,1.19-1.79-.24-3.57-.37-5.33-.37-4.01,0-7.74.47-11.17,1.41-3.44.94-5.65,1.43-6.66,1.46-1,.03-1.96.81-2.87,2.33l-1.28-.91c-6.21,12.83-10.83,22.93-13.86,30.29-.36,4.56-1.32,8.44-2.87,11.63-1.55,3.19-2.96,4.79-4.24,4.79h-.18c-2.07-.85-6.29-1.86-12.68-3.01-.97-.18-1.46-.73-1.46-1.64,0-2.01,1.06-3.88,3.19-5.61,2.13-1.73,3.34-3.06,3.65-3.97,2.01-3.77,3.83-6.39,5.47-7.85,2.19-2.61,4.95-6.91,8.26-12.9s6.04-10.02,8.17-12.08c.06-2.67,2.97-8.42,8.72-17.23,5.75-8.81,10.73-17.08,14.93-24.8,4.2-7.72,6.55-11.88,7.03-12.49,8.42-12.11,12.63-20.36,12.63-24.74v-.37c1.4,0,2.1-.3,2.1-.91v-.91c0-2.25,1.49-4.69,4.47-7.3l1.28.55c1.58-2.01,2.83-3.01,3.74-3.01,1.09,0,1.64.82,1.64,2.46,0,.97-.18,1.85-.55,2.64ZM648.24,261.95c1.7-.49,3.46-.73,5.29-.73,4.2-.79,6.29-1.98,6.29-3.56,0-.12-3.53-9.12-10.58-27-7.05-17.88-11.67-26.82-13.86-26.82-1.52,0-4.49,4.23-8.89,12.68-4.41,8.45-9.35,17.14-14.83,26.04-5.47,8.91-8.21,14.37-8.21,16.38,0,1.4.91,2.34,2.74,2.83,1.82.49,2.89.73,3.19.73l1.73-.18c1.03,0,2.43.15,4.19.46,1.76.31,2.98.46,3.65.46,1.46,0,3.84-.24,7.16-.73,3.31-.49,5.4-.73,6.25-.73s1.88.12,3.1.37c1.22.24,2.01.36,2.37.36.85,0,1.46-.42,1.82-1.28,1.52.49,2.89.73,4.11.73l2.83-.18c.67,0,1.22.06,1.64.18Z"/>
    <path d="M827.45,189.42l-1.64,5.84c-1.46,4.8-2.48,10.17-3.06,16.1s-.93,12.86-1.05,20.8c-.12,7.94-.41,14.78-.87,20.53s-.68,10.45-.68,14.09l.18,9.94-.18,6.84c0,3.47.44,7.48,1.32,12.04.88,4.56,1.32,7.6,1.32,9.12,0,3.53-.56,6.43-1.69,8.71-1.13,2.28-2.45,3.42-3.97,3.42-2.43,0-6.24-3.38-11.4-10.12v-1.83c-13.5-13.86-24.72-26.38-33.64-37.54-8.93-11.16-18.61-22.93-29.05-35.31-10.44-12.38-15.79-18.57-16.03-18.57-.61,0-1.22.53-1.83,1.6-.61,1.07-1.32,5.28-2.14,12.63-.82,7.36-1.23,16.21-1.23,26.55,0,11.37.55,24.27,1.64,38.68l1.37,2.55v2.1c0,2.01-.27,3.25-.82,3.74v.18c0,.43.32,1.52.96,3.28.64,1.76.96,3.47.96,5.11v1.09c-1.54,2.25-4.12,3.38-7.75,3.38-.8,0-1.32-.49-1.57-1.46-1.11.12-2.92.67-5.44,1.64-.74-1.15-1.11-3.01-1.11-5.56,0-2.37.44-6.42,1.32-12.13.63,0,1.04-.27,1.22-.82.19-.55.36-2.08.51-4.61.15-2.52.35-4.7.59-6.52-.91-1.09-1.37-1.98-1.37-2.65l.18-.55c1.15-.73,1.73-2.04,1.73-3.92l.36-10.86-.18-14.6c0-6.39.24-10.87.73-13.46.49-2.58.73-4.3.73-5.15,0-.97-.09-2.51-.27-4.61-.18-2.1-.27-3.27-.27-3.51,0-4.26.18-7.69.55-10.31.37-2.61.55-5.78.55-9.49l-.73-3.1c.24-.67.37-2.13.37-4.38,0-2.8-.06-5.02-.18-6.66.43-.61.98-1.23,1.65-1.87s1.16-1.11,1.47-1.41c.3-.3.53-.47.69-.5.15-.03.96-.26,2.43-.68,1.22.12,3.33,2.45,6.32,6.99,5.25,8,10.71,14.73,16.35,20.21-.12,0-.18.12-.18.37,0,.67,3.29,4.61,9.88,11.83,6.59,7.21,14.28,16.27,23.08,27.17l8.19,10.23c2.85,3.47,5.71,6.86,8.57,10.18,2.86,3.32,6.22,7.02,10.08,11.13,3.86,4.1,6.13,6.28,6.8,6.52.67.24,1.16.36,1.46.36.49,0,.73-.39.73-1.19l-.18-6.29.36-11.77-.18-15.87c0-6.2.12-14.44.37-24.72l.46-13.41c0-3.47-.4-5.66-1.19-6.57-.12-.37-.18-.79-.18-1.28,0-.61.09-1.38.27-2.33.18-.94.27-1.6.27-1.96,0-.55-.06-.94-.18-1.19.12-.79.18-1.98.18-3.56,0-1.34-.18-2.49-.55-3.47-.37-.97-.55-2.22-.55-3.74,0-1.95.73-3.5,2.19-4.65,1.46-1.16,3.41-1.73,5.84-1.73l1.92.18h2.74c.79,0,1.61.24,2.46.73Z"/>
    <path d="M861.61,313.67c-5.84-.55-8.76-1.79-8.76-3.74,0-.61.21-1.28.64-2.01.42-.73.79-1.6,1.09-2.6.3-1,.7-4.39,1.19-10.17.49-5.78.93-14.57,1.32-26.36.39-11.8.59-24.36.59-37.68l-1.28-29.92v-.18c0-.49-.26-1.19-.78-2.1-.52-.91-.78-1.58-.78-2.01,0-.18.52-1.37,1.55-3.56,1.03-2.19,2.86-3.66,5.47-4.42,2.61-.76,4.07-1.14,4.38-1.14.61,0,1.02.35,1.23,1.05.21.7.5,1.14.87,1.32,1.22,1.04,1.82,2.8,1.82,5.29,0,.18-.09.88-.27,2.1-1.52,10.16-2.28,21.41-2.28,33.75l.18,6.93-.82,37.68c0,11.31.76,19.54,2.28,24.68,1.52,5.14,2.28,8.74,2.28,10.81,0,.91-.87,1.73-2.6,2.46-1.73.73-3.18,1.09-4.33,1.09h-.55c-1.16,0-1.98-.43-2.46-1.28Z"/>
    <path d="M988.81,319.05c0,1.52-1.06,2.28-3.19,2.28l-9.49-1.37c-12.71-1.34-21.23-2.4-25.54-3.19-6.81-1.28-12.35-2.55-16.6-3.83-5.9-1.83-11.34-4.17-16.33-7.02-4.87-2.74-9.12-5.81-12.77-9.21-3.41-3.34-6.42-7.15-9.03-11.4-2.5-4.13-4.38-8.48-5.66-13.04-1.28-4.62-1.92-9.55-1.92-14.78,0-6.14,1.84-13.85,5.52-23.12,3.68-9.27,6.14-15.07,7.39-17.38,1.25-2.31,4.38-6.02,9.4-11.13,5.02-5.11,11.81-9.73,20.39-13.87,3.04-1.46,4.56-2.55,4.56-3.28,1.58-.67,3.77-1.02,6.57-1.05,2.8-.03,5.34-.49,7.62-1.37,2.28-.88,5.98-1.32,11.08-1.32,2.31,0,4.39.2,6.25.59,1.85.4,4.29.79,7.3,1.19,3.01.4,5.32.73,6.93,1,1.61.27,2.99.67,4.15,1.19,1.15.52,1.73,1.11,1.73,1.78,0,.85-.64,3.16-1.92,6.93-1.28,3.77-2.95,5.66-5.02,5.66-1.09,0-2.28-.39-3.56-1.19-2.68-2.98-6.4-5.06-11.17-6.25-4.78-1.19-7.98-1.78-9.62-1.78-1.34,0-3.25.12-5.75.37l-5.38.37c-.73.06-1.37.15-1.92.27-1.4.12-2.4.36-3.01.73-1.09.61-2.1,1.13-3.01,1.55-.91.43-1.76.73-2.55.91-.79.18-1.55.27-2.28.27h-.91l-1.28,1.37c-1.76,0-3.32.67-4.65,2.01h-1.92c-15.93,16.36-23.9,33.42-23.9,51.18,0,10.34,3.16,19.9,9.49,28.69,6.32,8.79,14.92,15.4,25.77,19.84,10.86,4.44,21.97,6.66,33.34,6.66,2.07,0,5.38-.39,9.94-1.19,4.56-.79,6.84-1.64,6.84-2.55,2.74.06,4.1,4.78,4.1,14.14v.36Z"/>
    <path d="M1069.13,187.05c4.88,16.78,20.2,52.88,45.98,108.29,3.47,5.17,5.2,9.55,5.2,13.14,0,.85-.29,1.61-.87,2.28-.58.67-2.71,1.55-6.39,2.65-3.68,1.09-6.1,1.88-7.25,2.37-.91-1.09-1.37-2.16-1.37-3.19,0-.91.12-1.95.37-3.1l.46-1.37c0-2-.99-6.14-2.98-12.4-1.98-6.26-5.38-14.23-10.18-23.91-.49-.24-.99-.93-1.5-2.05-.52-1.13-1.81-1.69-3.88-1.69-1.15,0-2.28.58-3.37,1.74-.18-.49-1.46-.94-3.83-1.37l-2.74-.73h-2.74c-6.2,0-10.5.35-12.91,1.05-2.4.7-3.66,1.05-3.78,1.05-.85,0-1.52-.46-2.01-1.37-3.77,1.04-6.55,1.43-8.35,1.19s-3.57-.37-5.33-.37c-4.01,0-7.74.47-11.17,1.41-3.44.94-5.65,1.43-6.66,1.46-1,.03-1.96.81-2.87,2.33l-1.28-.91c-6.2,12.83-10.83,22.93-13.86,30.29-.37,4.56-1.32,8.44-2.87,11.63-1.55,3.19-2.96,4.79-4.24,4.79h-.18c-2.07-.85-6.29-1.86-12.68-3.01-.97-.18-1.46-.73-1.46-1.64,0-2.01,1.06-3.88,3.19-5.61,2.13-1.73,3.34-3.06,3.65-3.97,2.01-3.77,3.83-6.39,5.47-7.85,2.19-2.61,4.95-6.91,8.26-12.9,3.32-5.99,6.04-10.02,8.17-12.08.06-2.67,2.97-8.42,8.72-17.23,5.75-8.81,10.73-17.08,14.93-24.8,4.2-7.72,6.54-11.88,7.03-12.49,8.42-12.11,12.63-20.36,12.63-24.74v-.37c1.4,0,2.1-.3,2.1-.91v-.91c0-2.25,1.49-4.69,4.47-7.3l1.28.55c1.58-2.01,2.83-3.01,3.74-3.01,1.09,0,1.64.82,1.64,2.46,0,.97-.18,1.85-.55,2.64ZM1073.59,261.95c1.7-.49,3.46-.73,5.29-.73,4.2-.79,6.29-1.98,6.29-3.56,0-.12-3.53-9.12-10.58-27-7.05-17.88-11.67-26.82-13.86-26.82-1.52,0-4.49,4.23-8.89,12.68-4.41,8.45-9.35,17.14-14.83,26.04-5.47,8.91-8.21,14.37-8.21,16.38,0,1.4.91,2.34,2.74,2.83,1.82.49,2.89.73,3.19.73l1.73-.18c1.03,0,2.43.15,4.19.46,1.76.31,2.98.46,3.65.46,1.46,0,3.84-.24,7.16-.73,3.31-.49,5.4-.73,6.25-.73s1.88.12,3.1.37c1.22.24,2.01.36,2.37.36.85,0,1.46-.42,1.82-1.28,1.52.49,2.89.73,4.11.73l2.83-.18c.67,0,1.22.06,1.64.18Z"/>
    <path d="M1225.52,319.05c0,1.52-1.06,2.28-3.19,2.28l-9.49-1.37c-12.71-1.34-21.23-2.4-25.54-3.19-6.81-1.28-12.35-2.55-16.6-3.83-5.9-1.83-11.34-4.17-16.33-7.02-4.87-2.74-9.12-5.81-12.77-9.21-3.41-3.34-6.42-7.15-9.03-11.4-2.5-4.13-4.38-8.48-5.66-13.04-1.28-4.62-1.92-9.55-1.92-14.78,0-6.14,1.84-13.85,5.52-23.12,3.68-9.27,6.14-15.07,7.39-17.38,1.25-2.31,4.38-6.02,9.4-11.13,5.02-5.11,11.81-9.73,20.39-13.87,3.04-1.46,4.56-2.55,4.56-3.28,1.58-.67,3.77-1.02,6.57-1.05,2.8-.03,5.34-.49,7.62-1.37,2.28-.88,5.98-1.32,11.08-1.32,2.31,0,4.39.2,6.25.59,1.85.4,4.29.79,7.3,1.19,3.01.4,5.32.73,6.93,1,1.61.27,2.99.67,4.15,1.19,1.15.52,1.73,1.11,1.73,1.78,0,.85-.64,3.16-1.92,6.93-1.28,3.77-2.95,5.66-5.02,5.66-1.09,0-2.28-.39-3.56-1.19-2.68-2.98-6.4-5.06-11.17-6.25-4.78-1.19-7.98-1.78-9.62-1.78-1.34,0-3.25.12-5.75.37l-5.38.37c-.73.06-1.37.15-1.92.27-1.4.12-2.4.36-3.01.73-1.09.61-2.1,1.13-3.01,1.55-.91.43-1.76.73-2.55.91-.79.18-1.55.27-2.28.27h-.91l-1.28,1.37c-1.76,0-3.32.67-4.65,2.01h-1.92c-15.93,16.36-23.9,33.42-23.9,51.18,0,10.34,3.16,19.9,9.49,28.69,6.32,8.79,14.92,15.4,25.77,19.84,10.86,4.44,21.97,6.66,33.34,6.66,2.07,0,5.38-.39,9.94-1.19,4.56-.79,6.84-1.64,6.84-2.55,2.74.06,4.1,4.78,4.1,14.14v.36Z"/>
    <path d="M1305.84,187.05c4.88,16.78,20.2,52.88,45.98,108.29,3.47,5.17,5.2,9.55,5.2,13.14,0,.85-.29,1.61-.87,2.28-.58.67-2.71,1.55-6.39,2.65-3.68,1.09-6.1,1.88-7.25,2.37-.91-1.09-1.37-2.16-1.37-3.19,0-.91.12-1.95.37-3.1l.46-1.37c0-2-.99-6.14-2.98-12.4-1.98-6.26-5.38-14.23-10.18-23.91-.49-.24-.99-.93-1.5-2.05-.52-1.13-1.81-1.69-3.88-1.69-1.15,0-2.28.58-3.37,1.74-.18-.49-1.46-.94-3.83-1.37l-2.74-.73h-2.74c-6.2,0-10.5.35-12.91,1.05-2.4.7-3.66,1.05-3.78,1.05-.85,0-1.52-.46-2.01-1.37-3.77,1.04-6.55,1.43-8.35,1.19s-3.57-.37-5.33-.37c-4.01,0-7.74.47-11.17,1.41-3.44.94-5.65,1.43-6.66,1.46-1,.03-1.96.81-2.87,2.33l-1.28-.91c-6.2,12.83-10.83,22.93-13.86,30.29-.37,4.56-1.32,8.44-2.87,11.63-1.55,3.19-2.96,4.79-4.24,4.79h-.18c-2.07-.85-6.29-1.86-12.68-3.01-.97-.18-1.46-.73-1.46-1.64,0-2.01,1.06-3.88,3.19-5.61,2.13-1.73,3.34-3.06,3.65-3.97,2.01-3.77,3.83-6.39,5.47-7.85,2.19-2.61,4.95-6.91,8.26-12.9,3.32-5.99,6.04-10.02,8.17-12.08.06-2.67,2.97-8.42,8.72-17.23,5.75-8.81,10.73-17.08,14.93-24.8,4.2-7.72,6.54-11.88,7.03-12.49,8.42-12.11,12.63-20.36,12.63-24.74v-.37c1.4,0,2.1-.3,2.1-.91v-.91c0-2.25,1.49-4.69,4.47-7.3l1.28.55c1.58-2.01,2.83-3.01,3.74-3.01,1.09,0,1.64.82,1.64,2.46,0,.97-.18,1.85-.55,2.64ZM1310.3,261.95c1.7-.49,3.46-.73,5.29-.73,4.2-.79,6.29-1.98,6.29-3.56,0-.12-3.53-9.12-10.58-27-7.05-17.88-11.67-26.82-13.86-26.82-1.52,0-4.49,4.23-8.89,12.68-4.41,8.45-9.35,17.14-14.83,26.04-5.47,8.91-8.21,14.37-8.21,16.38,0,1.4.91,2.34,2.74,2.83,1.82.49,2.89.73,3.19.73l1.73-.18c1.03,0,2.43.15,4.19.46,1.76.31,2.98.46,3.65.46,1.46,0,3.84-.24,7.16-.73,3.31-.49,5.4-.73,6.25-.73s1.88.12,3.1.37c1.22.24,2.01.36,2.37.36.85,0,1.46-.42,1.82-1.28,1.52.49,2.89.73,4.11.73l2.83-.18c.67,0,1.22.06,1.64.18Z"/>
  </g>
</svg>